<svg xmlns="http://www.w3.org/2000/svg" xmlns:xlink="http://www.w3.org/1999/xlink" viewBox="0 0 467.8 424.98"><defs><style>.cls-1{fill:none;}.cls-2{clip-path:url(#clip-path);}.cls-3{fill:#19322f;}</style><clipPath id="clip-path" transform="translate(0 0)"><rect class="cls-1" width="467.8" height="424.98"/></clipPath></defs><title>homepage_head</title><g id="Layer_2" data-name="Layer 2"><g id="Layer_1-2" data-name="Layer 1"><g id="image_head"><g class="cls-2"><g class="cls-2"><path class="cls-3" d="M288.17,425H129.49c-1.67-8-3.55-16-5-24.06-2.16-12.44-9.93-19.33-21.74-21.47-8.73-1.58-17.74-1.53-26.53-2.86s-17.95-2.52-26.34-5.47c-14.25-5-17.11-19.13-10.88-31.88,2.59-5.3,1.58-10-3.62-13-2.2-1.27-4.57-2.22-6.79-3.46-4.94-2.77-6.32-8.58-3-12.46,1.91-2.22,3.94-4.33,5.91-6.49-2.4-2-4.79-4-7.21-6-5.11-4.13-5.47-5.71-2.51-11.79,1.94-4,3.87-8,5.91-11.95,1.25-2.42.94-3.61-2-4.33-5.51-1.34-11-2.95-16.36-4.77C-.22,261.8-2.77,253.75,3.2,245.7a51.47,51.47,0,0,1,5.21-5.64,171.13,171.13,0,0,0,26-33.51c4.92-8.2,7.08-16.92,2.84-25.81-5.16-10.83-3.56-21.44-1.2-32.48C44.58,108.73,66.92,78,97.6,53.12,131.91,25.31,172,16.22,215.34,21.43c20.79,2.5,40.83,8.47,60.15,16.62,7.85,3.32,15.61,6.87,23.77,10.47a93.78,93.78,0,0,1,24.08-32C337.79,4,354.74-1.46,373.63.33,390.81,2,406.47,8.58,421,17.6c31,19.15,46.19,47.25,46.74,83.47a168.77,168.77,0,0,1-8.05,53.2,399.54,399.54,0,0,0-15.11,69.2c-1.25,9.79-2.58,19.63-2.84,29.48-.39,14.68-.59,29.43.44,44.06,1.23,17.51,7.45,34,12.67,50.63,3,9.56,5.85,19.16,8.77,28.74l-1.13.74c-7.82-9-15.89-17.81-23.41-27.07-23-28.34-40.32-59.78-50.76-94.91-6.2-20.89-6.93-42.54-9.64-63.93-2.38-18.76-5-37.5-8.36-56.11-2.43-13.62-6.63-26.79-15.37-38-4.48-5.76-14-10.37-19.38-9.09,13.83,25.05,22,52,25.32,80.26A162.93,162.93,0,0,1,358.22,222c-10.54,49-38.05,86.41-78.1,115.4-5.14,3.72-11.1,7.2-12.2,14-2.15,13.39-3.26,26.88-1.15,40.46,2.21,14.26,8.47,25.8,21.4,33.07" transform="translate(0 0)"/></g></g></g></g></g></svg>