<svg xmlns="http://www.w3.org/2000/svg" xmlns:xlink="http://www.w3.org/1999/xlink" viewBox="0 0 300.51 458.1"><defs><style>.cls-1{clip-path:url(#clip-path);}.cls-2{fill:none;}.cls-3{isolation:isolate;}.cls-4{clip-path:url(#clip-path-2);}.cls-5{fill:url(#linear-gradient);}.cls-6{clip-path:url(#clip-path-3);}.cls-7{mask:url(#mask);}.cls-8{clip-path:url(#clip-path-6);}.cls-9{font-size:32.72px;letter-spacing:0.05em;}.cls-106,.cls-75,.cls-9{fill:#758482;}.cls-75,.cls-9{font-family:OldManEloquent, Old Man Eloquent;}.cls-10{letter-spacing:0em;}.cls-11,.cls-22{font-size:12.33px;}.cls-108,.cls-11,.cls-22,.cls-56{fill:#a3adac;}.cls-108,.cls-11,.cls-22,.cls-32,.cls-41,.cls-56,.cls-76,.cls-90{font-family:SourceSansPro-Regular, Source Sans Pro;}.cls-12,.cls-22{letter-spacing:-0.05em;}.cls-13{letter-spacing:-0.06em;}.cls-14{letter-spacing:-0.05em;}.cls-15{letter-spacing:-0.08em;}.cls-16{letter-spacing:-0.06em;}.cls-17{letter-spacing:-0.05em;}.cls-18{letter-spacing:-0.05em;}.cls-19{letter-spacing:-0.06em;}.cls-20{letter-spacing:-0.05em;}.cls-21{letter-spacing:-0.03em;}.cls-23{letter-spacing:-0.06em;}.cls-24{letter-spacing:-0.06em;}.cls-25{letter-spacing:-0.07em;}.cls-26{letter-spacing:-0.07em;}.cls-27{letter-spacing:-0.07em;}.cls-28{letter-spacing:0em;}.cls-29{letter-spacing:-0.07em;}.cls-30{letter-spacing:-0.02em;}.cls-31{letter-spacing:0em;}.cls-32{font-size:16.09px;}.cls-32,.cls-41,.cls-47,.cls-76{fill:#132623;}.cls-33{letter-spacing:-0.12em;}.cls-34{letter-spacing:-0.1em;}.cls-35{letter-spacing:-0.1em;}.cls-36{letter-spacing:-0.1em;}.cls-37{letter-spacing:-0.1em;}.cls-38{letter-spacing:-0.11em;}.cls-39{letter-spacing:-0.1em;}.cls-40{letter-spacing:-0.12em;}.cls-41{font-size:8.54px;letter-spacing:0.2em;}.cls-42{letter-spacing:0.19em;}.cls-43{letter-spacing:0.2em;}.cls-44{letter-spacing:0.2em;}.cls-45{letter-spacing:0.18em;}.cls-46{letter-spacing:0em;}.cls-47{font-size:15.18px;letter-spacing:-0.03em;}.cls-106,.cls-47,.cls-67,.cls-84{font-family:SourceSansPro-Bold, Source Sans Pro;}.cls-106,.cls-47,.cls-67,.cls-83,.cls-84{font-weight:700;}.cls-48{letter-spacing:-0.03em;}.cls-49{letter-spacing:-0.03em;}.cls-50{letter-spacing:-0.04em;}.cls-51{letter-spacing:-0.03em;}.cls-52{letter-spacing:-0.05em;}.cls-53{letter-spacing:-0.04em;}.cls-54{letter-spacing:-0.03em;}.cls-55{letter-spacing:0em;}.cls-56{font-size:7.59px;letter-spacing:0.04em;}.cls-57{letter-spacing:0.04em;}.cls-58{letter-spacing:0.04em;}.cls-59{letter-spacing:0.04em;}.cls-60{letter-spacing:0.03em;}.cls-61{letter-spacing:0.02em;}.cls-62{letter-spacing:0.01em;}.cls-63{letter-spacing:0.01em;}.cls-64{letter-spacing:0.04em;}.cls-65{letter-spacing:0.03em;}.cls-66{letter-spacing:0em;}.cls-67{font-size:7.06px;fill:#060c0c;}.cls-68{letter-spacing:-0.05em;}.cls-69{letter-spacing:-0.05em;}.cls-70{letter-spacing:-0.07em;}.cls-71{letter-spacing:-0.06em;}.cls-72{letter-spacing:-0.05em;}.cls-73{letter-spacing:-0.07em;}.cls-74{letter-spacing:-0.05em;}.cls-75{font-size:41.79px;}.cls-76{font-size:22.77px;letter-spacing:0.1em;}.cls-77{letter-spacing:0.08em;}.cls-78{letter-spacing:0.09em;}.cls-79{letter-spacing:0.1em;}.cls-80{letter-spacing:0.1em;}.cls-81{letter-spacing:0.1em;}.cls-82{letter-spacing:0em;}.cls-83{font-size:28.84px;fill:#19322f;font-family:OldManEloquent-Bold, Old Man Eloquent;}.cls-84{font-size:7.53px;fill:#0d1918;}.cls-85{letter-spacing:-0.01em;}.cls-86{letter-spacing:-0.01em;}.cls-87{letter-spacing:-0.03em;}.cls-88{letter-spacing:-0.02em;}.cls-89{letter-spacing:-0.01em;}.cls-90{font-size:5.69px;fill:#475b59;}.cls-91{letter-spacing:0.03em;}.cls-92{letter-spacing:0em;}.cls-93{letter-spacing:-0.02em;}.cls-94{letter-spacing:-0.02em;}.cls-95{letter-spacing:-0.01em;}.cls-96{letter-spacing:0.01em;}.cls-97{letter-spacing:-0.01em;}.cls-98{letter-spacing:0em;}.cls-99{letter-spacing:-0.02em;}.cls-100{letter-spacing:-0.02em;}.cls-101{letter-spacing:-0.01em;}.cls-102{letter-spacing:0.01em;}.cls-103{letter-spacing:0.01em;}.cls-104{letter-spacing:-0.01em;}.cls-105{letter-spacing:-0.01em;}.cls-106{font-size:9.49px;}.cls-107{letter-spacing:-0.01em;}.cls-108{font-size:16.13px;}</style><clipPath id="clip-path"><rect class="cls-2" x="41.63" y="30.92" width="303.59" height="458.1"/></clipPath><clipPath id="clip-path-2"><rect class="cls-2" x="40.68" y="26.31" width="310.56" height="463.66"/></clipPath><linearGradient id="linear-gradient" x1="-0.89" y1="0.02" x2="0.06" y2="0.02" gradientTransform="matrix(0, -509, -509, 0, 198.59, 46.36)" gradientUnits="userSpaceOnUse"><stop offset="0" stop-color="#fff"/><stop offset="0.18" stop-color="#fff"/><stop offset="1" stop-color="#231f20"/></linearGradient><clipPath id="clip-path-3" transform="translate(-41.63 -30.92)"><rect class="cls-2" width="474.38" height="500"/></clipPath><mask id="mask" x="-16.02" y="-13.84" width="325.63" height="482.92" maskUnits="userSpaceOnUse"><g transform="translate(-41.63 -30.92)"><g class="cls-1"><rect x="40.68" y="26.31" width="310.56" height="463.66"/><g class="cls-3"><g class="cls-4"><rect class="cls-5" x="25.62" y="17.08" width="325.43" height="482.92"/></g></g></g></g></mask><clipPath id="clip-path-6" transform="translate(-41.63 -30.92)"><rect class="cls-2" x="41.75" y="31.31" width="303.61" height="458.25"/></clipPath></defs><title>homepage_developer</title><g id="Layer_2" data-name="Layer 2"><g id="Layer_1-2" data-name="Layer 1"><g class="cls-6"><g class="cls-6"><g class="cls-6"><g class="cls-7"><g class="cls-8"><text class="cls-9" transform="matrix(0.99, 0.16, -0.45, 2.79, 70.16, 165.39)">&lt;/div<tspan class="cls-10" x="66.12" y="0">&gt;</tspan></text><text class="cls-11" transform="translate(171.86 62.61) rotate(-15.04)"><tspan class="cls-12" xml:space="preserve">  </tspan><tspan class="cls-13" x="3.7" y="0">f</tspan><tspan class="cls-14" x="6.56" y="0">o</tspan><tspan class="cls-12" x="12.64" y="0">n</tspan><tspan class="cls-15" x="18.77" y="0">t</tspan><tspan class="cls-14" x="22" y="0">-si</tspan><tspan class="cls-16" x="32.23" y="0">z</tspan><tspan class="cls-14" x="36.74" y="0">e</tspan><tspan class="cls-17" x="42.25" y="0">: </tspan><tspan class="cls-18" x="46.56" y="0">1</tspan><tspan class="cls-19" x="52.08" y="0">r</tspan><tspan class="cls-14" x="55.64" y="0">em</tspan><tspan x="70.77" y="0">;</tspan></text><text class="cls-11" transform="translate(175.7 76.9) rotate(-15.04)"><tspan class="cls-12" xml:space="preserve">  </tspan><tspan class="cls-13" x="3.7" y="0">f</tspan><tspan class="cls-14" x="6.56" y="0">o</tspan><tspan class="cls-12" x="12.64" y="0">n</tspan><tspan class="cls-15" x="18.77" y="0">t</tspan><tspan class="cls-14" x="22" y="0">-</tspan><tspan class="cls-20" x="25.23" y="0">w</tspan><tspan class="cls-14" x="33.44" y="0">eigh</tspan><tspan class="cls-21" x="53.1" y="0">t</tspan><tspan class="cls-12" x="56.83" y="0">: </tspan><tspan class="cls-14" x="61.14" y="0">3</tspan><tspan class="cls-12" x="66.66" y="0">00</tspan><tspan x="77.69" y="0">;</tspan></text><text class="cls-22" transform="translate(179.54 91.19) rotate(-15.04)"><tspan xml:space="preserve">  </tspan><tspan class="cls-23" x="3.7" y="0">t</tspan><tspan class="cls-24" x="7.08" y="0">e</tspan><tspan class="cls-25" x="12.51" y="0">x</tspan><tspan class="cls-15" x="17.09" y="0">t</tspan><tspan class="cls-26" x="20.33" y="0">-</tspan><tspan class="cls-17" x="23.24" y="0">t</tspan><tspan class="cls-27" x="26.79" y="0">r</tspan><tspan class="cls-14" x="30.17" y="0">a</tspan><tspan x="35.78" y="0">n</tspan><tspan class="cls-14" x="41.91" y="0">s</tspan><tspan class="cls-13" x="46.47" y="0">f</tspan><tspan class="cls-14" x="49.33" y="0">or</tspan><tspan x="59.09" y="0">m: </tspan><tspan class="cls-14" x="73" y="0">up</tspan><tspan x="85.35" y="0">p</tspan><tspan class="cls-14" x="91.58" y="0">e</tspan><tspan class="cls-16" x="97.09" y="0">r</tspan><tspan class="cls-13" x="100.64" y="0">c</tspan><tspan class="cls-18" x="105.53" y="0">ase</tspan><tspan class="cls-28" x="121.21" y="0">;</tspan></text><text class="cls-22" transform="translate(183.38 105.48) rotate(-15.04)"><tspan xml:space="preserve">  </tspan><tspan class="cls-29" x="3.7" y="0">c</tspan><tspan class="cls-14" x="8.45" y="0">olo</tspan><tspan class="cls-30" x="23.15" y="0">r</tspan><tspan class="cls-14" x="27.13" y="0">:</tspan><tspan x="29.6" y="0" xml:space="preserve"> #</tspan><tspan class="cls-14" x="36.96" y="0">1</tspan><tspan x="42.49" y="0">9</tspan><tspan class="cls-14" x="48" y="0">3</tspan><tspan x="53.53" y="0">22</tspan><tspan class="cls-18" x="64.55" y="0">F</tspan><tspan class="cls-31" x="70.04" y="0">;</tspan></text><text class="cls-32" transform="matrix(0.8, -0.6, 1.27, 1.68, 18, 140.17)"><tspan class="cls-33">v</tspan><tspan class="cls-34" x="5.6" y="0">a</tspan><tspan class="cls-35" x="12.1" y="0">r</tspan><tspan class="cls-34" x="16.09" y="0"> </tspan><tspan class="cls-36" x="17.7" y="0">in</tspan><tspan class="cls-34" x="27.27" y="0">p</tspan><tspan class="cls-35" x="34.59" y="0">ut </tspan><tspan class="cls-37" x="47.22" y="0">= </tspan><tspan class="cls-35" x="55.21" y="0">p</tspan><tspan class="cls-38" x="62.55" y="0">r</tspan><tspan class="cls-39" x="66.38" y="0">om</tspan><tspan class="cls-40" x="85.25" y="0">p</tspan><tspan class="cls-36" x="92.29" y="0">t</tspan><tspan class="cls-34" x="96.14" y="0">(</tspan><tspan x="99.4" y="0">)</tspan></text><text class="cls-41" transform="matrix(0.98, 0.21, -0.28, 1.29, 43.16, 398.42)">fun<tspan class="cls-42" x="16.93" y="0">c</tspan><tspan class="cls-43" x="22.44" y="0">t</tspan><tspan x="27.03" y="0">io</tspan><tspan class="cls-43" x="37.17" y="0">n</tspan><tspan x="43.54" y="0"> </tspan><tspan class="cls-43" x="46.96" y="0">b</tspan><tspan class="cls-44" x="53.38" y="0">uild</tspan><tspan class="cls-45" x="73.87" y="0">S</tspan><tspan class="cls-43" x="79.93" y="0">t</tspan><tspan x="84.52" y="0">rin</tspan><tspan class="cls-43" x="99.37" y="0">g</tspan><tspan x="105.38" y="0">(</tspan><tspan class="cls-46" x="109.67" y="0">)</tspan></text><text class="cls-47" transform="matrix(0.93, 0.37, -0.37, 0.93, 103.31, 97.15)">&lt;<tspan class="cls-48" x="7.56" y="0">?ph</tspan><tspan class="cls-49" x="30.63" y="0">p</tspan><tspan class="cls-48" x="38.88" y="0" xml:space="preserve"> if (</tspan><tspan class="cls-49" x="57.33" y="0" xml:space="preserve"> h</tspan><tspan class="cls-48" x="68.13" y="0">a</tspan><tspan class="cls-50" x="75.69" y="0">v</tspan><tspan class="cls-48" x="83.05" y="0">e</tspan><tspan x="90.47" y="0">_p</tspan><tspan class="cls-51" x="105.85" y="0">o</tspan><tspan class="cls-52" x="113.76" y="0">s</tspan><tspan class="cls-53" x="119.74" y="0">t</tspan><tspan x="124.96" y="0">s()</tspan><tspan class="cls-48" x="140.76" y="0"> </tspan><tspan x="143.36" y="0">)</tspan><tspan class="cls-54" x="148.13" y="0">:</tspan><tspan class="cls-49" x="152.24" y="0"> </tspan><tspan class="cls-48" x="154.82" y="0">?</tspan><tspan class="cls-55" x="161.41" y="0">&gt;</tspan></text><text class="cls-56" transform="translate(0.8 455.9) rotate(-6.48)">add_<tspan class="cls-57" x="17.26" y="0">t</tspan><tspan x="20.12" y="0">he</tspan><tspan class="cls-57" x="28.62" y="0">m</tspan><tspan x="35.21" y="0">e</tspan><tspan class="cls-58" x="39.28" y="0">_</tspan><tspan x="43.37" y="0">suppor</tspan><tspan class="cls-57" x="67.67" y="0">t</tspan><tspan class="cls-59" x="70.53" y="0"> </tspan><tspan class="cls-57" x="72.36" y="0">(</tspan><tspan class="cls-60" x="74.95" y="0">’</tspan><tspan x="77.05" y="0">po</tspan><tspan class="cls-61" x="85.98" y="0">s</tspan><tspan class="cls-62" x="89.31" y="0">t</tspan><tspan class="cls-63" x="91.98" y="0">-</tspan><tspan class="cls-58" x="94.44" y="0">t</tspan><tspan x="97.3" y="0">hum</tspan><tspan class="cls-58" x="112.77" y="0">bn</tspan><tspan class="cls-64" x="121.71" y="0">ail</tspan><tspan class="cls-65" x="130.25" y="0">s</tspan><tspan class="cls-59" x="133.64" y="0">’)</tspan><tspan class="cls-66" x="138.44" y="0">;</tspan></text><text class="cls-67" transform="matrix(2.14, 0.75, -0.33, 0.94, 0.74, 234.17)"><tspan class="cls-68">e</tspan><tspan class="cls-69" x="3.31" y="0">c</tspan><tspan class="cls-68" x="6.25" y="0">h</tspan><tspan class="cls-69" x="9.94" y="0">o</tspan><tspan class="cls-68" x="13.5" y="0"> </tspan><tspan class="cls-70" x="14.57" y="0">g</tspan><tspan class="cls-71" x="17.87" y="0">e</tspan><tspan class="cls-72" x="21.1" y="0">t_</tspan><tspan class="cls-69" x="26.64" y="0">t</tspan><tspan class="cls-72" x="28.99" y="0">he</tspan><tspan class="cls-69" x="35.98" y="0">_</tspan><tspan class="cls-68" x="39.16" y="0">d</tspan><tspan class="cls-70" x="42.86" y="0">a</tspan><tspan class="cls-73" x="46.11" y="0">t</tspan><tspan class="cls-68" x="48.33" y="0">e(</tspan><tspan class="cls-74" x="53.72" y="0">)</tspan><tspan x="55.8" y="0">;</tspan></text><text class="cls-75" transform="matrix(0.98, -0.19, 0.18, 0.99, 8.39, 61.66)">&lt;h1&gt;&lt;/h1&gt;</text><text class="cls-76" transform="translate(26.54 174.41) rotate(41.81)">&lt;!DO<tspan class="cls-77" x="56.13" y="0">C</tspan><tspan class="cls-78" x="70.97" y="0">T</tspan><tspan class="cls-79" x="85.14" y="0">Y</tspan><tspan x="98.23" y="0">P</tspan><tspan class="cls-80" x="113.4" y="0">E </tspan><tspan x="134.46" y="0">h</tspan><tspan class="cls-80" x="149.12" y="0">tm</tspan><tspan class="cls-81" x="180.2" y="0">l</tspan><tspan class="cls-82" x="188.29" y="0">&gt;</tspan></text><text class="cls-83" transform="matrix(0.99, 0.11, -0.19, 1.67, 60.94, 310.46)">&lt;a href=</text><text class="cls-84" transform="matrix(0.48, -0.88, 2.55, 1.39, 155.38, 395.31)">&lt;div class=<tspan class="cls-85" x="36.1" y="0">”</tspan><tspan class="cls-86" x="40.06" y="0">f</tspan><tspan x="42.56" y="0">o</tspan><tspan class="cls-87" x="46.74" y="0">o</tspan><tspan class="cls-88" x="50.73" y="0">t</tspan><tspan x="53.48" y="0">e</tspan><tspan class="cls-89" x="57.38" y="0">r</tspan><tspan x="60.31" y="0">”&gt;</tspan></text><text class="cls-90" transform="translate(60.64 353.46) rotate(-9.89)"><tspan xml:space="preserve">  .se</tspan><tspan class="cls-91" x="8.9" y="0">r</tspan><tspan class="cls-92" x="11.02" y="0">vi</tspan><tspan class="cls-93" x="15.08" y="0">c</tspan><tspan class="cls-92" x="17.56" y="0">es__b</tspan><tspan class="cls-94" x="31.61" y="0">o</tspan><tspan x="34.6" y="0">x {</tspan></text><text class="cls-90" transform="translate(61.82 360.19) rotate(-9.89)"><tspan xml:space="preserve">    display: fl</tspan><tspan class="cls-95" x="27.31" y="0">e</tspan><tspan class="cls-96" x="30.09" y="0">x</tspan><tspan x="32.66" y="0">;</tspan></text><text class="cls-90" transform="translate(62.99 366.91) rotate(-9.89)"><tspan xml:space="preserve">    fl</tspan><tspan class="cls-95" x="7.67" y="0">e</tspan><tspan class="cls-97" x="10.45" y="0">x</tspan><tspan class="cls-98" x="12.92" y="0">-w</tspan><tspan class="cls-99" x="18.77" y="0">r</tspan><tspan x="20.62" y="0">ap: w</tspan><tspan class="cls-100" x="33.29" y="0">r</tspan><tspan x="35.13" y="0">ap;</tspan></text><text class="cls-90" transform="translate(64.16 373.64) rotate(-9.89)"><tspan xml:space="preserve">    ju</tspan><tspan class="cls-93" x="9.06" y="0">s</tspan><tspan class="cls-98" x="11.33" y="0">tify-</tspan><tspan class="cls-93" x="20.74" y="0">c</tspan><tspan class="cls-98" x="23.23" y="0">on</tspan><tspan class="cls-101" x="29.42" y="0">t</tspan><tspan class="cls-92" x="31.27" y="0">en</tspan><tspan class="cls-102" x="37.21" y="0">t</tspan><tspan x="39.22" y="0">: s</tspan><tspan class="cls-97" x="44.16" y="0">p</tspan><tspan x="47.24" y="0">a</tspan><tspan class="cls-93" x="50.11" y="0">c</tspan><tspan class="cls-103" x="52.59" y="0">e</tspan><tspan class="cls-98" x="55.47" y="0">-a</tspan><tspan class="cls-104" x="60.11" y="0">r</tspan><tspan x="62.03" y="0">ound;</tspan></text><text class="cls-90" transform="translate(65.33 380.37) rotate(-9.89)"><tspan xml:space="preserve">    align-i</tspan><tspan class="cls-105" x="19.43" y="0">t</tspan><tspan x="21.27" y="0">ems: </tspan><tspan class="cls-97" x="33.76" y="0">b</tspan><tspan x="36.83" y="0">aseline;</tspan></text><text class="cls-90" transform="translate(66.51 387.1) rotate(-9.89)"><tspan xml:space="preserve">  }</tspan></text><text class="cls-106" transform="translate(163.79 139.62) rotate(74.79)">@media sc<tspan class="cls-107" x="45.2" y="0">r</tspan><tspan x="48.88" y="0">een and (min-width: 37em)</tspan></text><text class="cls-108" transform="translate(42.61 261.43) rotate(-85.18)">;</text><text class="cls-108" transform="translate(41.22 277.88) rotate(-85.18)">%</text><text class="cls-108" transform="translate(40.27 289.09) rotate(-85.18)">0</text><text class="cls-108" transform="translate(39.33 300.29) rotate(-85.18)">0</text><text class="cls-108" transform="translate(38.39 311.49) rotate(-85.18)">1</text><text class="cls-108" transform="translate(37.85 317.92) rotate(-85.18)"> </text><text class="cls-108" transform="translate(37.24 325.14) rotate(-85.18)">:</text><text class="cls-108" transform="translate(36.23 337.09) rotate(-85.18)">h</text><text class="cls-108" transform="translate(35.5 345.74) rotate(-85.18)">t</text><text class="cls-108" transform="translate(34.48 357.87) rotate(-85.18)">d</text><text class="cls-108" transform="translate(33.88 365.04) rotate(-85.18)">i</text><text class="cls-108" transform="translate(32.63 379.8) rotate(-85.18)">w</text><text class="cls-108" transform="translate(31.94 388.01) rotate(-85.18)">-</text><text class="cls-108" transform="translate(31.09 398.17) rotate(-85.18)">x</text><text class="cls-108" transform="translate(30.13 409.48) rotate(-85.18)">a</text><text class="cls-108" transform="translate(28.74 426.02) rotate(-85.18)">m</text><text class="cls-108" transform="translate(28.2 432.45) rotate(-85.18)"> </text><text class="cls-108" transform="translate(27.66 438.88) rotate(-85.18)"> </text></g></g></g></g></g></g></g></svg>