<svg xmlns="http://www.w3.org/2000/svg" xmlns:xlink="http://www.w3.org/1999/xlink" viewBox="0 0 332.72 478.48"><defs><style>.cls-1{clip-path:url(#clip-path);}.cls-13,.cls-15,.cls-16,.cls-19,.cls-2,.cls-22,.cls-28,.cls-33,.cls-34,.cls-6{fill:none;}.cls-3{isolation:isolate;}.cls-4{clip-path:url(#clip-path-2);}.cls-5{fill:url(#linear-gradient);}.cls-6{stroke:#000;}.cls-13,.cls-15,.cls-22,.cls-28,.cls-6{stroke-miterlimit:10;}.cls-7{clip-path:url(#clip-path-3);}.cls-8{mask:url(#mask);}.cls-9{clip-path:url(#clip-path-6);}.cls-10{clip-path:url(#clip-path-7);}.cls-11,.cls-21,.cls-23{fill:#19322f;}.cls-12{fill:#475b59;}.cls-13{stroke:#475b59;}.cls-13,.cls-19{stroke-width:0.25px;}.cls-14{fill:#d1d6d5;}.cls-15,.cls-16,.cls-19{stroke:#19322f;}.cls-15{stroke-width:4px;}.cls-16,.cls-19,.cls-33,.cls-34{stroke-linecap:round;stroke-linejoin:round;}.cls-17{clip-path:url(#clip-path-8);}.cls-18{fill:#a3adac;}.cls-20{fill:#758482;}.cls-21{font-size:5.65px;}.cls-21,.cls-23,.cls-30{font-family:SourceSansPro-Regular, Source Sans Pro;}.cls-22,.cls-33{stroke:#132623;}.cls-23{font-size:4.71px;}.cls-24{letter-spacing:-0.12em;}.cls-25{letter-spacing:-0.02em;}.cls-26{letter-spacing:0em;}.cls-27{letter-spacing:-0.02em;}.cls-28,.cls-34{stroke:#a3adac;}.cls-28{stroke-width:0.5px;}.cls-29{letter-spacing:-0.01em;}.cls-30{font-size:2.82px;fill:#fff;}.cls-31{letter-spacing:-0.02em;}.cls-32{letter-spacing:-0.01em;}</style><clipPath id="clip-path"><rect class="cls-2" x="56.91" y="13.3" width="353.81" height="481.36"/></clipPath><clipPath id="clip-path-2"><rect class="cls-2" x="52.56" y="13.3" width="361.3" height="481.36"/></clipPath><linearGradient id="linear-gradient" x1="-9.81" y1="9.14" x2="-9.15" y2="9.14" gradientTransform="matrix(0, -732.89, -732.89, 0, 6916.59, -6691.04)" gradientUnits="userSpaceOnUse"><stop offset="0" stop-color="#fff"/><stop offset="0.32" stop-color="#fff"/><stop offset="0.33" stop-color="#f7f7f7"/><stop offset="0.43" stop-color="#c0bebf"/><stop offset="0.52" stop-color="#908e8e"/><stop offset="0.61" stop-color="#696667"/><stop offset="0.7" stop-color="#4a4748"/><stop offset="0.79" stop-color="#343132"/><stop offset="0.87" stop-color="#272424"/><stop offset="0.94" stop-color="#231f20"/><stop offset="1" stop-color="#231f20"/></linearGradient><clipPath id="clip-path-3" transform="translate(-56.91 -16.35)"><rect class="cls-2" width="567" height="567"/></clipPath><mask id="mask" x="-11.28" y="-3.55" width="368.23" height="485.89" maskUnits="userSpaceOnUse"><g transform="translate(-56.91 -16.35)"><g class="cls-1"><rect x="52.56" y="13.3" width="361.3" height="481.36"/><g class="cls-3"><g class="cls-4"><rect class="cls-5" x="46.13" y="13.3" width="344.07" height="484.89"/><rect class="cls-6" x="46.13" y="13.3" width="344.07" height="484.89"/></g></g></g></g></mask><clipPath id="clip-path-6" transform="translate(-56.91 -16.35)"><rect class="cls-2" x="57" y="13" width="354" height="482"/></clipPath><clipPath id="clip-path-7" transform="translate(-56.91 -16.35)"><rect class="cls-2" x="122.18" y="23.97" width="119.28" height="238.69" transform="translate(-28.58 46.72) rotate(-13.59)"/></clipPath><clipPath id="clip-path-8" transform="translate(-56.91 -16.35)"><rect class="cls-2" x="321" y="229" width="17" height="20"/></clipPath></defs><title>homepage_designer</title><g id="Layer_2" data-name="Layer 2"><g id="Layer_1-2" data-name="Layer 1"><g class="cls-7"><g class="cls-7"><g class="cls-7"><g class="cls-8"><g class="cls-9"><path class="cls-6" d="M156.89,81.4a9.43,9.43,0,1,1,11.38,7A9.44,9.44,0,0,1,156.89,81.4Z" transform="translate(-56.91 -16.35)"/><polygon class="cls-6" points="127.44 201 135.74 172.82 155.99 194.1 127.44 201"/><polygon class="cls-6" points="175.49 124.42 78.81 147.78 65.53 92.79 162.21 69.43 175.49 124.42"/><path class="cls-6" d="M260.33,78.42,248.25,65.5l5.36-17.64L258.13,33l12.14-2.81c10.1,1,19.7,2.22,28.74,3.5l3.2,3.42,12.18,13L309.52,66.2l-5,16.44-33.07,7.68Z" transform="translate(-56.91 -16.35)"/><g class="cls-10"><path class="cls-11" d="M197.43,16.76,110.19,37.85A14.84,14.84,0,0,0,99.3,55.76L148.4,259a14.83,14.83,0,0,0,17.85,10.9l87.18-21.07a14.83,14.83,0,0,0,10.9-17.85L215.24,27.74a14.75,14.75,0,0,0-17.81-11m-48,34.57a2.43,2.43,0,0,1,1.79-2.93l14.68-3.55a2.43,2.43,0,0,1,2.93,1.79l0,.18A2.43,2.43,0,0,1,167,49.75L152.36,53.3a2.43,2.43,0,0,1-2.93-1.79Zm-7.82-.6a2.49,2.49,0,1,1-1.83,3,2.49,2.49,0,0,1,1.83-3m66,199a10,10,0,1,1,7.38-12.08,10,10,0,0,1-7.38,12.08M248.87,209,152.2,232.33,114.82,77.65l96.67-23.36Z" transform="translate(-56.91 -16.35)"/></g><path class="cls-12" d="M168.27,88.35a9.43,9.43,0,1,1,7-11.38,9.43,9.43,0,0,1-7,11.38" transform="translate(-56.91 -16.35)"/><line class="cls-13" x1="109.04" y1="75.73" x2="115.15" y2="74.26"/><line class="cls-13" x1="109.25" y1="76.6" x2="115.36" y2="75.12"/><line class="cls-13" x1="109.46" y1="77.46" x2="115.57" y2="75.99"/><polygon class="cls-14" points="175.49 124.42 78.81 147.78 65.53 92.79 162.21 69.43 175.49 124.42"/><path class="cls-11" d="M198.56,144.33,166.91,152a3.1,3.1,0,0,1-3.74-2.28l-.85-3.54a3.1,3.1,0,0,1,2.28-3.74l31.65-7.65a3.1,3.1,0,0,1,3.74,2.28l.85,3.54a3.1,3.1,0,0,1-2.28,3.74" transform="translate(-56.91 -16.35)"/><line class="cls-15" x1="86.32" y1="155.67" x2="171.87" y2="135"/><line class="cls-15" x1="87.79" y1="161.78" x2="173.37" y2="141.1"/><line class="cls-15" x1="89.27" y1="167.91" x2="174.83" y2="147.24"/><line class="cls-15" x1="90.75" y1="174.02" x2="176.31" y2="153.34"/><polygon class="cls-12" points="155.99 194.1 127.44 201 135.74 172.82 155.99 194.1"/><path class="cls-16" d="M350.56,283.17a34.65,34.65,0,1,1,17.17-45.89A34.65,34.65,0,0,1,350.56,283.17Z" transform="translate(-56.91 -16.35)"/><g class="cls-17"><g class="cls-17"><path class="cls-11" d="M337.26,231.71c.23.54-.95,1.6-2.64,2.37-2.24,1-4.58.68-5.23-.75a5,5,0,0,0,.46-4.65,9.74,9.74,0,0,1,7.41,3" transform="translate(-56.91 -16.35)"/><path class="cls-11" d="M329.85,228.67h0a5,5,0,0,1-.46,4.65,9,9,0,0,1-4,3.5c-2.22,1-4.36,1.07-4.79.14a9.75,9.75,0,0,1,9.29-8.3" transform="translate(-56.91 -16.35)"/><path class="cls-11" d="M335.43,246.62l-.67,1.83-1.84-.69a10,10,0,0,0,1.31-.49,10.7,10.7,0,0,0,1.21-.65" transform="translate(-56.91 -16.35)"/></g></g><path class="cls-16" d="M330.61,248.13a9.74,9.74,0,1,1-.77-19.46" transform="translate(-56.91 -16.35)"/><path class="cls-16" d="M329.85,228.68a9.73,9.73,0,0,1,7.36,16.47" transform="translate(-56.91 -16.35)"/><path class="cls-16" d="M337.21,245.15c7.67-.53,18.51,5.75,22.71,18.43l-30.27,13.78c-6.82-11.5-4.47-23.82,1-29.23a9.45,9.45,0,0,0,2.3-.38,9.89,9.89,0,0,0,1.31-.49,10.7,10.7,0,0,0,1.21-.65A9.56,9.56,0,0,0,337.21,245.15Z" transform="translate(-56.91 -16.35)"/><polyline class="cls-16" points="275.95 231.39 276 231.41 277.84 232.1 278.52 230.27 278.54 230.2"/><path class="cls-16" d="M320.55,237h0c.43.93,2.58.87,4.79-.14" transform="translate(-56.91 -16.35)"/><path class="cls-16" d="M329.85,228.67h0a5,5,0,0,1-.46,4.65,9,9,0,0,1-4,3.5" transform="translate(-56.91 -16.35)"/><path class="cls-16" d="M329.39,233.33c.65,1.44,3,1.77,5.23.75" transform="translate(-56.91 -16.35)"/><path class="cls-16" d="M337.25,231.7h0c.23.54-.95,1.6-2.64,2.37" transform="translate(-56.91 -16.35)"/><rect class="cls-18" x="223.91" y="412.37" width="8.38" height="50.97" transform="translate(-315.81 502.62) rotate(-71.94)"/><rect class="cls-18" x="288.83" y="433.54" width="8.38" height="50.97" transform="translate(-291.15 578.96) rotate(-71.94)"/><rect class="cls-18" x="353.41" y="454.6" width="8.38" height="50.97" transform="translate(-266.61 654.89) rotate(-71.94)"/><line class="cls-16" x1="330.84" y1="308.14" x2="139.41" y2="245.71"/><circle class="cls-19" cx="204.2" cy="260.28" r="1.68" transform="translate(-163.47 357.38) rotate(-71.94)"/><circle class="cls-19" cx="209.9" cy="262.14" r="1.68" transform="translate(-161.3 364.09) rotate(-71.94)"/><circle class="cls-19" cx="215.76" cy="264.05" r="1.68" transform="translate(-159.08 370.97) rotate(-71.94)"/><path class="cls-20" d="M231,290.11c-1.25,3.84-9.29,4.66-18,1.84s-14.68-8.23-13.43-12.07,9.29-4.66,18-1.84,14.68,8.23,13.43,12.07" transform="translate(-56.91 -16.35)"/><text class="cls-21" transform="matrix(0.95, 0.31, -0.31, 0.95, 265.11, 303.43)">MENU 1</text><text class="cls-21" transform="matrix(0.95, 0.31, -0.31, 0.95, 294.19, 312.92)">MENU 2</text><text class="cls-21" transform="matrix(0.95, 0.31, -0.31, 0.95, 323.27, 322.4)">ME</text><polygon class="cls-14" points="331.09 339.2 331.09 361.98 123.79 294.39 130.5 273.79 331.09 339.2"/><line class="cls-22" x1="288.59" y1="314.8" x2="315.76" y2="323.66"/><text class="cls-23" transform="translate(128.2 308.55) rotate(18.06)">FI<tspan class="cls-24" x="3.56" y="0">L</tspan><tspan x="5.29" y="0">TER</tspan></text><text class="cls-23" transform="translate(125.86 315.71) rotate(18.06)">O<tspan class="cls-25" x="3.13" y="0">p</tspan><tspan class="cls-26" x="5.66" y="0">tion 1</tspan></text><text class="cls-23" transform="translate(123.53 322.87) rotate(18.06)">O<tspan class="cls-25" x="3.13" y="0">p</tspan><tspan class="cls-26" x="5.66" y="0">tion 2</tspan></text><text class="cls-23" transform="translate(121.19 330.03) rotate(18.06)">O<tspan class="cls-25" x="3.13" y="0">p</tspan><tspan class="cls-26" x="5.66" y="0">tion 3</tspan></text><text class="cls-23" transform="translate(118.86 337.19) rotate(18.06)">O<tspan class="cls-25" x="3.13" y="0">p</tspan><tspan class="cls-26" x="5.66" y="0">tion 4</tspan></text><text class="cls-23" transform="translate(113.99 351.8) rotate(18.06)">FI<tspan class="cls-24" x="3.56" y="0">L</tspan><tspan x="5.29" y="0">TER</tspan></text><text class="cls-23" transform="translate(111.66 358.96) rotate(18.06)">O<tspan class="cls-27" x="3.13" y="0">p</tspan><tspan x="5.66" y="0">tion 1</tspan></text><text class="cls-23" transform="translate(109.32 366.12) rotate(18.06)">O<tspan class="cls-27" x="3.13" y="0">p</tspan><tspan x="5.66" y="0">tion 2</tspan></text><text class="cls-23" transform="translate(106.99 373.28) rotate(18.06)">O<tspan class="cls-27" x="3.13" y="0">p</tspan><tspan x="5.66" y="0">tion 3</tspan></text><text class="cls-23" transform="translate(104.65 380.45) rotate(18.06)">O<tspan class="cls-27" x="3.13" y="0">p</tspan><tspan x="5.66" y="0">tion 4</tspan></text><line class="cls-28" x1="162.65" y1="311.75" x2="131.22" y2="408.16"/><rect class="cls-18" x="224.78" y="343.82" width="50.97" height="50.97" transform="translate(-235.34 476.39) rotate(-71.94)"/><rect class="cls-18" x="289.7" y="364.99" width="50.97" height="50.97" transform="translate(-210.67 552.73) rotate(-71.94)"/><polygon class="cls-18" points="331.09 370.99 331.09 424.59 290.98 411.51 306.78 363.06 331.09 370.99"/><text class="cls-23" transform="translate(176.67 385.3) rotate(18.06)">I<tspan class="cls-29" x="1.24" y="0">t</tspan><tspan x="2.76" y="0">em 1</tspan></text><text class="cls-23" transform="translate(241.44 406.42) rotate(18.06)">I<tspan class="cls-29" x="1.24" y="0">t</tspan><tspan x="2.76" y="0">em 2</tspan></text><text class="cls-23" transform="translate(305.51 427.31) rotate(18.06)">I<tspan class="cls-29" x="1.24" y="0">t</tspan><tspan x="2.76" y="0">em 3</tspan></text><path class="cls-11" d="M250.67,419.93l-30.17-9.84a1.23,1.23,0,0,1-.79-1.55l1.06-3.24a1.23,1.23,0,0,1,1.55-.79l30.17,9.84a1.23,1.23,0,0,1,.79,1.55l-1.06,3.24a1.23,1.23,0,0,1-1.55.79" transform="translate(-56.91 -16.35)"/><text class="cls-30" transform="translate(171.98 394.46) rotate(18.06)">ADD <tspan class="cls-31" x="5.58" y="0">T</tspan><tspan x="7.03" y="0">O CA</tspan><tspan class="cls-32" x="12.62" y="0">R</tspan><tspan x="14.19" y="0">T</tspan></text><path class="cls-11" d="M315.39,441l-30.17-9.84a1.23,1.23,0,0,1-.79-1.55l1.06-3.24a1.23,1.23,0,0,1,1.55-.79l30.17,9.84A1.23,1.23,0,0,1,318,437l-1.06,3.24a1.23,1.23,0,0,1-1.55.79" transform="translate(-56.91 -16.35)"/><text class="cls-30" transform="translate(236.69 415.56) rotate(18.06)">ADD <tspan class="cls-31" x="5.58" y="0">T</tspan><tspan x="7.03" y="0">O CA</tspan><tspan class="cls-32" x="12.62" y="0">R</tspan><tspan x="14.19" y="0">T</tspan></text><path class="cls-11" d="M380,462.09l-30.17-9.84a1.23,1.23,0,0,1-.79-1.55l1.06-3.24a1.23,1.23,0,0,1,1.55-.79l30.17,9.84a1.23,1.23,0,0,1,.79,1.55l-1.06,3.24a1.23,1.23,0,0,1-1.55.79" transform="translate(-56.91 -16.35)"/><text class="cls-30" transform="translate(301.27 436.62) rotate(18.06)">ADD <tspan class="cls-31" x="5.58" y="0">T</tspan><tspan x="7.03" y="0">O CA</tspan><tspan class="cls-32" x="12.62" y="0">R</tspan><tspan x="14.19" y="0">T</tspan></text><path class="cls-16" d="M203.07,255.35a5.35,5.35,0,0,0-5.75,3.66l-1,3.06-9.16,28.08-6.71,20.6-11.12,34.09-23.07,70.76,56.3,18.36s17.76,5.79,17.76,5.8l30.7,10,16.47,5.38,48.46,15.8,16.12,5.26L380.54,492l7.22,2.35" transform="translate(-56.91 -16.35)"/><path class="cls-11" d="M66,194.33l3.92-9.12c1.24-3.07,2.52-6.12,3.72-9.2l1.85-4.6c.6-1.54,1.16-3.09,1.74-4.64l.86-2.32.8-2.35c.51-1.57,1.1-3.12,1.55-4.71a96,96,0,0,0,4.28-19.28,29.87,29.87,0,0,0-.43-9.76L84,127.17,83.53,126a5.65,5.65,0,0,0-.24-.56L83,125a8.21,8.21,0,0,0-.63-1,8.5,8.5,0,0,0-3.68-3c-3-1.25-6.39-1.15-9.66-1.86a14.23,14.23,0,0,1-4.71-1.83,12.36,12.36,0,0,1-3.61-3.54,22.17,22.17,0,0,1-3.35-9.41,51,51,0,0,1-.36-10A119.15,119.15,0,0,1,60,74.7c1.55-6.45,3.5-12.79,5.58-19.07a0,0,0,0,1,.05,0c-1.89,6.34-3.59,12.74-5,19.2a116.7,116.7,0,0,0-3,19.55,50.34,50.34,0,0,0,.35,9.84,21.53,21.53,0,0,0,3.24,9.13,11.7,11.7,0,0,0,3.42,3.36,13.57,13.57,0,0,0,4.5,1.74c1.6.34,3.24.5,4.88.72a18.72,18.72,0,0,1,4.9,1.18,9.17,9.17,0,0,1,4,3.18,8.92,8.92,0,0,1,.67,1.09l.31.56a6.3,6.3,0,0,1,.25.58l.47,1.18.32,1.22a30.51,30.51,0,0,1,.45,10,96.61,96.61,0,0,1-4.31,19.42c-.46,1.59-1,3.15-1.56,4.72l-.8,2.35L77.85,167c-.58,1.55-1.14,3.11-1.74,4.65l-1.84,4.62c-.6,1.54-1.29,3.05-2,4.56l-2,4.54-4.22,9a0,0,0,0,1,0,0,0,0,0,0,1,0,0" transform="translate(-56.91 -16.35)"/><path class="cls-11" d="M66.08,194.15a3.66,3.66,0,0,0-1.74-1.63,6.76,6.76,0,0,1,.94,3.43,7.14,7.14,0,0,1,3.18-1.6,3.79,3.79,0,0,0-2.38-.2" transform="translate(-56.91 -16.35)"/><path class="cls-11" d="M65.56,55.84a3.67,3.67,0,0,1-2.39.09,6.77,6.77,0,0,0,3-2,7.13,7.13,0,0,0,1.35,3.29,3.79,3.79,0,0,1-1.93-1.41" transform="translate(-56.91 -16.35)"/><path class="cls-16" d="M340.33,107.9c-5.58-7.12-4.06-22.49,4.29-37.22" transform="translate(-56.91 -16.35)"/><path class="cls-11" d="M339.77,107.2l-2,.57,0,.07,2.92,1.14,2.69,1.58L341.61,108l-1.35-2.83-.07,0Z" transform="translate(-56.91 -16.35)"/><path class="cls-16" d="M374.34,47.89c-9-1.13-21.39,8.07-29.73,22.79" transform="translate(-56.91 -16.35)"/><path class="cls-11" d="M373.45,47.78l-1.54,1.41,0,.06,3.12-.3,3.11.21-2.74-1.49L373,45.73h-.07Z" transform="translate(-56.91 -16.35)"/><polygon class="cls-11" points="77.05 296.08 82.78 307.81 69.98 305.22 60.6 314.29 59.11 301.32 47.59 295.2 59.46 289.78 61.72 276.92 70.55 286.53 83.47 284.72 77.05 296.08"/><path class="cls-12" d="M302.22,37.12,299,33.69l-7.81-8.36L270.27,30.2,258.13,33l-4.53,14.85-5.36,17.64,12.08,12.92,11.11,11.89,33.07-7.68,5-16.44,4.88-16.06ZM272.56,72.29l-5.48-23.6,23.59-5.48,5.48,23.61Z" transform="translate(-56.91 -16.35)"/><path class="cls-33" d="M285.38,166.26c-2.65,13.82,21.74,30.1,54.47,36.37,19.64,3.76,36.84.09,38.43-8.2,1-5-7.83-10.84-19.61-13.09-7.07-1.35-13.26,0-13.83,3-.34,1.79,2.82,3.9,7.06,4.71,2.54.49,4.77,0,5-1.06.12-.64-1-1.4-2.54-1.7" transform="translate(-56.91 -16.35)"/><path class="cls-34" d="M107.66,212.08a7.84,7.84,0,0,1-.08,11.09,8.61,8.61,0,0,1-2.65,1.79,8.71,8.71,0,0,1-9.67-1.87,9.7,9.7,0,0,1,.1-13.7,8.82,8.82,0,0,1,.83-.72,10.74,10.74,0,0,1,14.39.83,12,12,0,0,1-.13,16.91,12.94,12.94,0,0,1-3.42,2.44,13.28,13.28,0,0,1-15.36-2.57,14.76,14.76,0,0,1,.15-20.87,15.41,15.41,0,0,1,1.8-1.53c7.36-3.54,15.49-3.39,20.45.77,8.29,6.94,6.25,23.85-3.86,30.11-7.75,4.8-18.17,2.05-24-3.62-9.08-8.84-6.69-24.43.22-31.8a17.8,17.8,0,0,1,3.29-2.72c8.65-5.62,23.34-5.27,32.06,3,9.76,9.21,10.64,27-.28,39.27" transform="translate(-56.91 -16.35)"/><polyline class="cls-15" points="209.49 137.54 250.89 96 260.67 136.28 314.86 91.14 330.84 134.31"/><path class="cls-11" d="M294.26,126.74a6.24,6.24,0,0,0,6.37,3.92c1.7-.17,2.78-1.21,4.37-1.68,2.51-.74,4.11,1,6.28,1.64a1,1,0,0,0,.53-1.91c-2.35-.71-3.63-2.21-6.31-1.85a10.3,10.3,0,0,0-2.54.87c-1.71.69-2.51,1.14-4.29.47a3.8,3.8,0,0,1-2.69-2.47c-.52-1.16-2.23-.16-1.71,1" transform="translate(-56.91 -16.35)"/><path class="cls-11" d="M350.68,126.76c4.86-3.45,11.29-2,16.45,0a28.39,28.39,0,0,1,7.69,4.62c1.69,1.38,3.14,2.61,5.33,3,1.25.24,1.78-1.67.53-1.91-3.13-.61-5.34-3.53-8-5.19a32.17,32.17,0,0,0-8.08-3.5c-5-1.44-10.51-1.93-14.93,1.21-1,.73,0,2.46,1,1.71" transform="translate(-56.91 -16.35)"/></g></g></g></g></g></g></g></svg>