<svg id="Layer_1" data-name="Layer 1" xmlns="http://www.w3.org/2000/svg" viewBox="0 0 200 200"><defs><style>.cls-1{fill:#19322f;}</style></defs><title>icon_wordpress</title><g id="Layer_2" data-name="Layer 2"><g id="Layer_1-2" data-name="Layer 1-2"><path class="cls-1" d="M99.41,19.09a80.46,80.46,0,0,0,0,160.91,65.79,65.79,0,0,0,10.43-.75,80.38,80.38,0,0,0,69.27-68.77,72.1,72.1,0,0,0,.8-10.9A80.6,80.6,0,0,0,99.41,19.09ZM27.13,99.58a71.76,71.76,0,0,1,6.29-29.42L67.9,164.66A72.37,72.37,0,0,1,27.13,99.58Zm81.67,71.9a76.8,76.8,0,0,1-9.39.59,71,71,0,0,1-20.37-3l7.88-23h0l13.7-40L122.92,167c.17.34.38.67.54,1A74.23,74.23,0,0,1,108.8,171.48Zm.63-105.84c4.36-.21,8.26-.67,8.26-.67,3.94-.42,3.44-6.2-.46-6,0,0-11.73.92-19.28.92-7.08,0-19.07-.92-19.07-.92-3.86-.25-4.36,5.74-.42,6,0,0,3.65.46,7.58.67L97.32,96.52,81.48,144,55.12,65.64c4.4-.21,8.3-.67,8.3-.67,3.86-.42,3.44-6.2-.46-6,0,0-11.69.92-19.28.92-1.38,0-3,0-4.65-.08A72.36,72.36,0,0,1,148.27,46.24c-.34,0-.63,0-1,0-7.12,0-12.15,6.2-12.15,12.86,0,6,3.44,11,7.08,16.93,2.77,4.82,6,11,6,19.95q0,9.3-5.49,23.34l-7.25,24.14Zm26.36,96.46,5.74-16.64L157.87,98.2c4.15-10.31,5.49-18.56,5.49-25.9a59.39,59.39,0,0,0-.46-7.46,71.93,71.93,0,0,1,8.88,34.74,76.23,76.23,0,0,1-.63,9.85A72.49,72.49,0,0,1,135.79,162.11Z"/></g></g></svg>