<svg id="Layer_1" data-name="Layer 1" xmlns="http://www.w3.org/2000/svg" viewBox="0 0 200 200"><defs><style>.cls-1{fill:#19322f;stroke:#19322f;stroke-miterlimit:10;}</style></defs><title>icon_book</title><g id="Layer_2" data-name="Layer 2"><g id="Layer_1-2" data-name="Layer 1-2"><path class="cls-1" d="M138.39,19C121,19,104.81,24.94,99.52,37.89,93.77,24.94,78,19,60.66,19,37.21,19,18,30,18,52.53V172.66h9.4c5.46-11.18,18.78-17.83,33.25-17.83,17.07,0,31.36,11.69,34.65,27.17h8.37c3.29-15.48,17.61-27.17,34.69-27.17,14.47,0,26,5,33.29,17.83H181V52.53C181,30,161.82,19,138.39,19ZM96.54,166.12a43.34,43.34,0,0,0-35.66-18.33c-14.85,0-27.55,4.29-35.66,15.34l-.43.23V51.94h0v-.43c1.28-17.79,17.05-25.95,35.85-25.95,19.21,0,34.94,8,35.46,26.29v.9l.42,5.56ZM174.21,54.46V163.1c-7.64-11-21.11-15.25-35.87-15.25a43.07,43.07,0,0,0-35.44,18.22V52.76c0-18.72,16-27.17,35.48-27.17,18.76,0,34.56,4.75,35.83,22.5Z"/></g></g></svg>