<svg id="Layer_1" data-name="Layer 1" xmlns="http://www.w3.org/2000/svg" viewBox="0 0 200 200"><defs><style>.cls-1{fill:#19322f;}</style></defs><title>icon_camera</title><g id="Layer_2" data-name="Layer 2"><g id="Layer_1-2" data-name="Layer 1-2"><path class="cls-1" d="M176.49,53.83H146.94C131.67,36.71,126.87,31,121,31H78.92C73.07,31,68.36,36.71,53,53.83H46.86V46.22H30.69v7.61H24.27c-8.37,0-15.94,6.28-15.94,14.6v83.72c0,8.32,7.56,15.84,15.94,15.84H176.49c8.37,0,14.51-7.52,14.51-15.84V68.44A14.18,14.18,0,0,0,176.49,53.83Zm6.9,98.33c0,4.42-2.95,8.23-6.9,8.23H24.27c-4.14,0-8.32-4.14-8.32-8.23V68.44c0-3.9,3.85-7,8.32-7H56.52l2.28-1.52c1.9-2.14,3.66-4.76,5.28-6.56,5.38-6,9.28-10.32,12-12.8,2.24-2,2.95-2,2.95-2h42.1s.76,0,3.19,2.14c2.9,2.62,7,7.85,12.65,14.18q2.07,2.38,4.42,5l2.28,1.52h32.78c4.19,0,6.9,2.85,6.9,7v83.72Z"/><path class="cls-1" d="M99.47,67.7a40.67,40.67,0,1,0,40.67,40.67A40.67,40.67,0,0,0,99.47,67.7Zm0,73.66a33.06,33.06,0,1,1,33.06-33.06h0a33.05,33.05,0,0,1-33,33.06Z"/><rect class="cls-1" x="145.33" y="69.06" width="8.09" height="8.09"/><circle class="cls-1" cx="99.47" cy="108.37" r="15.22"/></g></g></svg>