<svg id="Layer_1" data-name="Layer 1" xmlns="http://www.w3.org/2000/svg" viewBox="0 0 200 200"><defs><style>.cls-1{fill:#19322f;}</style></defs><title>icon_phone</title><g id="Layer_2" data-name="Layer 2"><g id="Layer_1-2" data-name="Layer 1-2"><path class="cls-1" d="M131.5,13h-64A10.57,10.57,0,0,0,57,23.58V172.46A10.57,10.57,0,0,0,67.54,183h63.92A10.57,10.57,0,0,0,142,172.46V23.58A10.51,10.51,0,0,0,131.56,13ZM92.42,28.87a1.71,1.71,0,0,1,1.72-1.71h10.74a1.71,1.71,0,0,1,1.71,1.71h0V29a1.71,1.71,0,0,1-1.72,1.71H94.12A1.71,1.71,0,0,1,92.42,29h0ZM87.25,27a1.77,1.77,0,1,1-1.77,1.77A1.77,1.77,0,0,1,87.25,27Zm12.4,148.91a7.13,7.13,0,1,1,7.13-7.13,7.13,7.13,0,0,1-7.13,7.13Zm35.27-21.25H64.08V41.33h70.83Z"/></g></g></svg>