<svg xmlns="http://www.w3.org/2000/svg" viewBox="0 0 465.02 425.21"><defs><style>.cls-1,.cls-6{fill:#bb556c;}.cls-12,.cls-2,.cls-5,.cls-7{fill:#fff;}.cls-13,.cls-3,.cls-4{fill:none;}.cls-3,.cls-4{stroke:#dba4b0;}.cls-13,.cls-3,.cls-4,.cls-7{stroke-miterlimit:10;}.cls-3{stroke-width:4px;}.cls-5,.cls-6{opacity:0.3;}.cls-7{font-size:109.96px;font-family:Alana, Alana;}.cls-13,.cls-7{stroke:#fff;}.cls-8{letter-spacing:-0.03em;}.cls-9{letter-spacing:0em;}.cls-10{letter-spacing:0.02em;}.cls-11{letter-spacing:0.03em;}.cls-12{font-size:62.07px;font-family:MrEavesXLModOT-Light, Mr Eaves XL Mod OT;}</style></defs><title>paint_logo_1</title><g id="Layer_2" data-name="Layer 2"><g id="Layer_1-2" data-name="Layer 1"><circle class="cls-1" cx="194.24" cy="199.96" r="168.5"/><path class="cls-1" d="M134.06,18.24c-1,.49-2.2,1-3.42,1.43L126.88,21a68.87,68.87,0,0,1-7.54,2.27c-4.62,1.26-8.22,1.44-7.8-.78l-2.7-1.25c1.88-.74,5.19-2.2,8.94-3.66,1.9-.67,3.9-1.36,5.87-2,1-.31,2-.63,2.91-.9s1.91-.47,2.8-.66c3.59-.77,6.47-1.15,7.61-.54S137.41,15.45,134.06,18.24Z"/><path class="cls-2" d="M141.12,33.17c-7.27,1.12-2.35-1.6-1.53-3.32,1.61-.52,3.27-.89,4.91-1.31l4.93-1.23C152.83,28.24,144.93,31.43,141.12,33.17Z"/><path class="cls-1" d="M148.46,67.38l2.5.08a20.49,20.49,0,0,0-4.15.38A19.68,19.68,0,0,0,143,69c-.43-.82.21-2.06,1.56-3.24a12.31,12.31,0,0,1,5.84-2.46C149.84,65,145.55,66.47,148.46,67.38Z"/><path class="cls-1" d="M30.93,128.8c2.07,2.1,6,1.72,10.47,0a65.11,65.11,0,0,0,7.22-3.42c1.25-.69,2.5-1.44,3.74-2.24s2.58-1.58,3.84-2.43c2,2.72,4,5.36,6,7.95A20,20,0,0,0,57,134c-.74,1.18-1.46,2.47-2.15,3.83A36.29,36.29,0,0,0,53,142.17c-.57,1.51-1.12,3.07-1.66,4.65s-.92,3.21-1.38,4.81c-1,3.19-1.57,6.43-2.39,9.38.27,2.5,1.79,0,3-1.65s2.27-2.29,1.64,3.57c-1.64.95-3.62-.56-5,1.7a13,13,0,0,0,1.22,6.05c.74,1.5,1.62,2.69,2.3,4.2a11.81,11.81,0,0,1,.82,2.6,20.27,20.27,0,0,1,.44,3.58,45.09,45.09,0,0,1-.23,5.05c-.11,2-.44,4.32-.83,7.1-1.52,2.41-3.12,4.9-4.6,7.46a112.94,112.94,0,0,0,4.26,29.4,142.87,142.87,0,0,0,10.93,27.4A205.64,205.64,0,0,0,76.62,282c5.48,7.71,11.26,15,17.11,22.19,2,.27,4.2,1.42,6.75,2.81,1.26.71,2.54,1.55,3.88,2.43s2.78,1.74,4.21,2.68,2.93,1.82,4.41,2.73,3,1.81,4.5,2.54,3,1.49,4.45,2.12,2.93,1,4.29,1.41l-1.12,2.52a11.54,11.54,0,0,1,5.7,1,19.88,19.88,0,0,1,2.75,1.5c.93.54,1.87,1.13,2.81,1.77s1.88,1.32,2.82,2,1.93,1.25,2.9,1.84,1.94,1.14,2.9,1.63a15.73,15.73,0,0,0,2.93,1.06l3,2.4c1,.83,2.05,1.51,3.09,2.28.36,1.28-.75,1.69-2.59,1.71a50.39,50.39,0,0,1-6.77-.91c-1.23-.17-2.4-.41-3.47-.55a9.85,9.85,0,0,0-2.78,0c-1.5.27-2.2,1.19-1.22,3.39q1.31.9,2.63,1.65.66.37,1.32.71c.45.21.9.39,1.35.57a39.55,39.55,0,0,0,5.36,1.67,45,45,0,0,0,5.3.73l2.59.2c.86,0,1.72,0,2.57,0,1.7,0,3.37,0,5,.11s3.29.06,4.91.25a29.85,29.85,0,0,1,9.8,2.67,43.16,43.16,0,0,0,7.75.78,15.14,15.14,0,0,0,4.47-.76c1.19-.39,2.22-.86,3.46-1.32a29,29,0,0,1,4.76-1.44c2-2.83-2.73-2.63-1.91-5.86,1.79-.16,3.48-.25,5.07-.28s3.08-.17,4.51-.17c2.86.08,5.38.08,7.74.35s4.51.55,6.59.94c1,.19,2.05.41,3.06.63s2,.37,3,.57c2,.36,4,.79,6,1a53.19,53.19,0,0,0,6.46.28,41.12,41.12,0,0,0,7.36-1.07,32.86,32.86,0,0,0,4.11-1.29,47.83,47.83,0,0,0,4.45-1.86c0-.63,1.09-2,2.39-3.59.65-.8,1.34-1.65,2-2.5a19.92,19.92,0,0,0,1.6-2.59c.82-1.63,1-3-.13-3.58s-3.6-.34-8.25.76c-2.29,2.18-4.76,4.07-7.24,6.11-2.29-.21-4.59-.61-6.82-.92,1.62-.6,3.61-1.21,5.59-2s4-1.69,5.69-2.56c3.36-1.92,5.58-3.7,4.24-4.84a7.91,7.91,0,0,0,5.21.27,18.15,18.15,0,0,0,2.9-1,27.27,27.27,0,0,0,2.89-1.62c1-.61,1.93-1.28,2.88-2s1.82-1.55,2.7-2.35,1.73-1.61,2.54-2.4l2.24-2.44c2.88-3,4.84-5.69,6-5.9s1.32,1.74-.13,7.92c-2.85,1.21-5.06,2.31-7,3.28a24.81,24.81,0,0,0-4.75,2.9,21,21,0,0,0-3.56,3.41c-.55.66-1.09,1.39-1.64,2.18s-1.16,1.59-1.8,2.52l2.34-1.09,2.27-1.18c1.51-.79,3-1.51,4.52-2.31,2.92-1.65,5.9-3.17,8.68-4.92l2.12-1.26c.71-.41,1.41-.83,2.08-1.29l4.08-2.65c.69-.43,1.35-.88,2-1.36l2-1.4,1.95-1.39,1-.69.93-.74c2.47-2,5-3.86,7.27-6,1.15-1,2.35-2,3.45-3.1l3.26-3.24c.53-.54,1.09-1.07,1.6-1.63l1.5-1.7,3-3.4c.94-1.16,1.82-2.36,2.72-3.54s1.81-2.35,2.57-3.6c-.07-2.81-.11-5.52-.3-8.24,2,1,5.2-.58,8.6-3.71a48.35,48.35,0,0,0,5-5.77c.79-1.12,1.58-2.3,2.36-3.51a37.32,37.32,0,0,0,2.19-3.75c.22-1.25.56-2.54.9-3.77l.49-1.78c.14-.57.24-1.13.33-1.63.35-2,.29-3.3-1-2.95-.24-.37-.65,0-1.19.75s-1.14,2.1-2,3.6-1.73,3.29-2.68,5.12-2.12,3.63-3.17,5.32a31.28,31.28,0,0,1-3.2,4.31,7.66,7.66,0,0,1-2.65,2.2c-1.47.52-2.23-1.17-1.86-6.31.4-.66.83-1.31,1.21-2l1.13-2,2.32-4.09,2.17-4.18c.36-.7.75-1.39,1.1-2.09l1-2.13,2.06-4.24,1.89-4.28,1-2.12.87-2.14,1.76-4.24c4.56-11.26,7.94-22.12,11.29-30.75.17,3.15.29,6.09.26,8.93s-.09,5.58-.12,8.35a87.58,87.58,0,0,0,1.81,18.65,118.74,118.74,0,0,1-8.92,34.87,148.91,148.91,0,0,1-18.57,31.91,202.92,202.92,0,0,1-24.87,27.27,322.78,322.78,0,0,1-28.32,22.9c-1.52-1-5.16-.31-8.24-.2s-5.42,0-4.42-2.22a7.55,7.55,0,0,0-2,.2,20.65,20.65,0,0,0-2.37.57c-1.67.49-3.49,1.17-5.31,1.75-3.7,1-7.33,1.75-9.48,0-15.79,7.23-35.05,10.33-53.61,9.33a151,151,0,0,1-26.94-4l-6.32-1.64-6.08-1.91-1.49-.46-1.46-.54-2.89-1.05-2.84-1c-.93-.36-1.84-.76-2.75-1.12,1.31,2.69.79,3.93-1,4.23a11,11,0,0,1-3.48-.18c-.7-.12-1.46-.28-2.26-.48s-1.61-.48-2.47-.76c-7-2.09-15.3-6.65-20.12-7.55a34,34,0,0,0-5.36-5.52l-3.33-2.73c-1.15-.92-2.36-1.82-3.6-2.71-2.44-1.84-4.93-3.72-7.38-5.52s-4.72-3.71-6.73-5.53c-1.79.21-7.11-4.11-7.51-1.37a36.41,36.41,0,0,1,4.08,3.48c.56.55,1.06,1.11,1.55,1.65s1,1.06,1.44,1.6a74.1,74.1,0,0,0,6.72,7.51c-1.6.63-3.34.24-5.13-.91a30.27,30.27,0,0,1-5.5-5.28c-1.83-2.29-3.72-4.92-5.65-7.56-.93-1.36-1.88-2.71-2.87-4s-2-2.55-3-3.79c2.22,1,4.59,1.75,6.86,2.57q-1.32-1.41-2.59-2.93c-.85-1-1.6-2.12-2.38-3.22s-1.52-2.23-2.26-3.38-1.38-2.37-2.06-3.57l-2-3.65c-.65-1.22-1.2-2.51-1.8-3.76l-1.75-3.76c-.57-1.25-1.06-2.55-1.61-3.8-4.3-10.08-7.85-19.62-13.93-26.85a158.51,158.51,0,0,0,1.43,16.59,55.4,55.4,0,0,1-4.41-7.79q-1-2.07-1.89-4.2c-.59-1.43-1.08-2.91-1.6-4.37s-1-2.95-1.48-4.44L32,253.94c-.86-3-1.43-6-2.09-9-2.51-11.95-3.88-23-8-31.35a66.32,66.32,0,0,0,.84,13.12L24,233.53c.19,1.13.46,2.23.71,3.31l.71,3.17c1.81,8.23,3.11,14.56-.63,15.58-1,.1-2.25-.93-3.33-2.75a38.7,38.7,0,0,1-3.06-7.27,82.18,82.18,0,0,1-2-9.15,67.32,67.32,0,0,1-.5-8.25c.47-9.92.21-18.89-.17-27.6-.08-2.18-.11-4.33-.22-6.48l-.17-3.21-.06-3.18-.16-6.33.1-6.27c0-1,0-2.09.09-3.12l.24-3.1c.18-2.06.33-4.13.61-6.17a79.93,79.93,0,0,1,2.6-12.05A54.93,54.93,0,0,1,30.93,128.8Z"/><path class="cls-1" d="M4,177.37c-.86,8.47-.34,13.84.65,17.53a22.8,22.8,0,0,0,1.65,4.5,27.61,27.61,0,0,0,2,3.21c2.8,3.95,4.85,7.56,6.33,22.93-1.15-.82-2.11-.48-2.88.69a8.44,8.44,0,0,0-1,2.33,24.09,24.09,0,0,0-.59,3.28,51.89,51.89,0,0,0,1.06,16.87,54.88,54.88,0,0,1,3.31,7.47c1.05,2.56,2,5.21,2.81,7.85L20,271.68c.41,1.24.88,2.43,1.37,3.56s1,2.23,1.44,3.26c.88,3,.17,4.88-1.51,4.6s-4.27-2.77-6.82-8.54c-.44-4-1.36-7.92-2.16-11.94-.43-2-1-4-1.47-6s-1-4-1.54-6l-.85-3-.78-3.07L6,238.33l-1.53-6.25c-.25-1-.54-2.09-.77-3.14l-.65-3.16c-.43-2.11-.87-4.22-1.26-6.33s-.63-4.24-.91-6.35l-.4-3.16-.22-3.15q-.19-3.14-.27-6.24c0-2.06.12-4.11.25-6.12a52.3,52.3,0,0,1,.67-5.94q.52-2.92,1.24-5.71c.25-.93.49-1.84.79-2.74S3.61,178.24,4,177.37Z"/><path class="cls-2" d="M31.76,154.64c-.92,3.62-1.83,5.91-3,7.49A16.68,16.68,0,0,1,25,165.59a10.47,10.47,0,0,0-3.21,3.64,12.45,12.45,0,0,0-1.05,3.21,22.08,22.08,0,0,0-.25,4.84,9.65,9.65,0,0,1-1.59-4.56,11.11,11.11,0,0,1,.92-4.12L22,163.25A60.24,60.24,0,0,0,24.57,155c.2,2.87.59,5.74.89,8.55C27.54,160.49,29.5,157.49,31.76,154.64Z"/><path class="cls-1" d="M30.53,278.85c1.31,2.2,2.76,5.28,4.32,8.62s3.17,7,4.71,10.39c.74,1.72,1.4,3.4,2,5A37.5,37.5,0,0,1,43,307.21c.67,2.64.69,4.71-.29,5.68.61,1.52-3.27,1.05,1.25,5.23-.57-1.07-1.32-2.35-2.2-3.78L39,309.47A119.94,119.94,0,0,1,33.18,298c-.83-2-1.54-4-2.16-5.91-.31-1-.58-1.89-.82-2.79s-.38-1.81-.51-2.65C29.18,283.27,29.34,280.5,30.53,278.85Z"/><path class="cls-2" d="M37.51,231.6a64.64,64.64,0,0,1,2.65,7.55l1.39,4.38c.51,1.56.92,3.27,1.61,5.07q-1-1.66-2-3.54c-.69-1.25-1.4-2.57-2-4a19.28,19.28,0,0,1-1.37-4.5A16.65,16.65,0,0,1,37.51,231.6Z"/><path class="cls-1" d="M45.68,285.57c1.3-1.83,2.54-.2,3.61,2.18s2.27,5.41,3,6.56c.53,1.94,1.23,3.8,1.86,5.72-1-1-2-2-3-3.16a35.4,35.4,0,0,1-2.64-3.65,24.26,24.26,0,0,1-2-3.82A13.73,13.73,0,0,1,45.68,285.57Z"/><path class="cls-1" d="M96.35,355.3c2.94,2.4,3.5,3.26,2.77,3.52s-2.65-.21-4.49-.69c-3.68-1-7.09-1.86.52,3.42l-4.64-2.63-2.32-1.32c-.76-.46-1.51-.94-2.27-1.42q.21-3.74.53-7.41l4.88,3.38Z"/><path class="cls-1" d="M114.13,371.46a28,28,0,0,1,7,1.69,47.7,47.7,0,0,1,8.71,4.15c-1.61.25-3.21.43-4.84.63-1.54-.1-2.88-1.1-4.53-2.34A27.2,27.2,0,0,0,114.13,371.46Z"/><path class="cls-1" d="M103.68,349.63c3.37,1.1,4.41,2.2,5,3.47s.8,2.71,2.51,4.29c-1.65.28-5.18-2.52-7.45-4.89a7.85,7.85,0,0,1-2-3C101.6,348.91,102.13,348.82,103.68,349.63Z"/><path class="cls-1" d="M173.74,335a9.21,9.21,0,0,1-5,1.65,16.9,16.9,0,0,1-3-.06c-1-.14-2.1-.34-3.2-.58s-2.24-.49-3.39-.79-2.31-.69-3.5-1-2.41-.6-3.62-.95-2.44-.63-3.69-.85a43.92,43.92,0,0,0,6.7.77c2,.06,3.87.18,5.76.2a42.26,42.26,0,0,1,5.86.42A47.67,47.67,0,0,1,173.74,335Z"/><path class="cls-1" d="M246,11a35.65,35.65,0,0,0,9.56,3.54,63.54,63.54,0,0,0,8.78,1.25c-.86-1-1.72-2-2.62-2.91l-7.87-1.12C251.26,11.42,248.62,11.23,246,11Z"/><path class="cls-1" d="M151,6.23c-2.83,3.74-1.33,4.19,2.49,3.92,1.91-.19,4.47-.32,7.36-.41,1.45,0,3,0,4.59.08a45.69,45.69,0,0,1,4.94.72c4.28-.33,8.58-.65,12.9-1.27,2.16-.3,4.34-.48,6.52-.78s4.37-.62,6.57-.78L203,7.13c2.21-.19,4.42-.19,6.63-.24a76.71,76.71,0,0,1,13.1.86c3.64-.58,7.31-1,11.06-1.45A150.76,150.76,0,0,0,194,0c-3.79,0-7.62,0-11.43.23q-2.85.21-5.67.47L174.08,1c-.93.11-1.85.27-2.77.4a108.28,108.28,0,0,0-10.65,2A86.38,86.38,0,0,0,151,6.23Z"/><path class="cls-2" d="M146.38,38.22a51.42,51.42,0,0,0,8.77-1.48c1.48-.36,3-.79,4.43-1.26s3-.85,4.41-1.33l4.28-1.39c1.4-.41,2.78-.79,4.09-1.15s2.58-.69,3.77-1a25.14,25.14,0,0,1,3.34-.51l-2.65.07-2.72.22-5.6.5c-1.88.24-3.78.54-5.66.81l-2.82.42c-.93.16-1.85.37-2.77.55l-5.37,1.1c-1.73.4-3.39.86-5,1.27s-3.11.76-4.5,1.2l-3.85,1.18c-.36.85.87,1,2.55,1,.84,0,1.79-.1,2.71-.18S145.64,38.21,146.38,38.22Z"/><path class="cls-1" d="M374.5,115.06c-4.9-10.11-10.65-22.41-18.7-33.66-1-1.44-2-2.78-3.12-4.14s-2.17-2.7-3.28-4c-2.27-2.6-4.71-5-7.15-7.39a95.69,95.69,0,0,0-7.86-6.28A73.52,73.52,0,0,0,326,54.71c1.85,2.16,3.14,3.88,4.24,5.44.55.78,1.05,1.52,1.54,2.25l1.42,2.3c1,1.58,2.09,3.29,3.64,5.43s3.37,4.87,5.91,8.35A22.69,22.69,0,0,1,334,73.17a42.82,42.82,0,0,1-6.44-7.74c-4-5.63-8-12.25-14.2-17,4.47,4.59,2.84,4.92-.9,3.41-1.89-.74-4.25-2-6.79-3.31s-5.15-2.79-7.42-4.13c-7.69-6.41-18.9-13.23-31.78-18.52a180.31,180.31,0,0,0-40.8-11.25,25,25,0,0,1-2.54,0c-.93,0-2,0-3-.09-2.17-.1-4.6-.35-7.16-.58l-8-.54c-2.71-.16-5.44-.16-8-.2a59.92,59.92,0,0,0-7.21.34,31.62,31.62,0,0,0-5.53.92c-2.94.92-4.17,2.17-2.68,4a53.74,53.74,0,0,1-5.43.38c-1.63.07-3.09.09-4.45,0a51.23,51.23,0,0,1-7.14-1c-2.16-.43-4.23-1-6.55-1.33a31.45,31.45,0,0,0-8-.16,124.64,124.64,0,0,1-24.82,9.38c-4.17,1-8.27,2.21-12.52,3.16l-6.31,1.65-3.19.83-3.16,1c-2.11.65-4.24,1.3-6.37,2s-4.18,1.6-6.28,2.46a64.07,64.07,0,0,0-6.18,2.92q-1.52.8-3,1.65l-1.51.87-1.46,1q-2.91,1.93-5.74,4.13A68.87,68.87,0,0,0,64,52.23a48.22,48.22,0,0,0-4.86,5.67,49.24,49.24,0,0,0-4.24,6.5c-.39-1.26-1.52-1.26-3.12-.43A25.47,25.47,0,0,0,46,68.48c-1,1-2.12,2.15-3.19,3.3l-1.59,1.73c-.51.59-1,1.19-1.48,1.78l-5,6.11-4.49,6.16c-1.65,2.29-3.24,4.9-4.92,7.55a115,115,0,0,0-8.45,16.6,54.35,54.35,0,0,0-2.51,7.47,22.74,22.74,0,0,0-.95,5.76c0,3.11,1.18,4.46,4,3.2a27.52,27.52,0,0,0,6.05-8.91c.83-1.85,1.78-3.78,2.63-5.85l1.3-3.16c.43-1.08.95-2.13,1.43-3.22,1-2.16,2-4.4,3.1-6.56s2.4-4.27,3.72-6.31a46.84,46.84,0,0,1,4.49-5.65A29,29,0,0,1,42.65,86a33.31,33.31,0,0,1,2.79-2.1c1.62-1.13,3-2,4.07-2.64A14.28,14.28,0,0,1,52.19,80c1.34-.41,1.81-.09,1.65.77-.36,1.68-3,5.66-6.18,10.37-1.49,2.42-3.17,5-4.68,7.59s-2.84,5.25-3.9,7.63c-2,4.86-2.91,8.63-1.2,9.68.34-2.17,2.38-2.9,4.73-4.57s5.2-4.16,7.6-10c-2.91,6-3.41,8.71-2.76,9.59s2.54,0,4.63-1.15c4.16-2.37,9.3-5.45,7.74,1.06,1.15-1.33,2.38-2.45,3.45-3.55l3-3c2-1.77,3.68-3.24,5.17-4.5A43.59,43.59,0,0,1,79,95a28.55,28.55,0,0,1,6.7-2c2.46-.47,5.51-.71,9.49-1.14A41.29,41.29,0,0,0,98.34,88a21.41,21.41,0,0,0,1.8-3.14,8.46,8.46,0,0,0,.85-4.75c-.3-2.75-1.91-4.89-1.13-7.78a42.07,42.07,0,0,1,4.72-4.47,43,43,0,0,1,5.18-3.33A38.56,38.56,0,0,1,115.19,62a52.65,52.65,0,0,1,5.5-1.87l5.46-1.54c1.83-.45,3.63-.89,5.38-1.42l2.62-.83c.88-.26,1.75-.55,2.6-.86s1.71-.66,2.55-1l2.52-1.21a6.3,6.3,0,0,0-.66,4.34,3.08,3.08,0,0,0,2.32,2,12.44,12.44,0,0,0,4.56.23c.91-.08,1.87-.26,2.92-.4s2.14-.32,3.28-.55,2.32-.49,3.54-.77,2.49-.48,3.77-.76,2.56-.62,3.88-.85l3.95-.76c2.61-.6,5.24-.91,7.71-1.33s4.81-.59,6.88-.81c2.67-.19,4.8-.29,6.5-.59a15.52,15.52,0,0,0,4-1.21,10.3,10.3,0,0,0,4.1-3.46A9,9,0,0,1,203.11,45a17.91,17.91,0,0,1,4.63-.66,23.37,23.37,0,0,1,3.28.09c1.21.13,2.56.32,4,.57,2.79,1.8,2.54,3,1,3.87s-4.53,1.45-7.3,2.17-5.4,1.57-6.39,2.63-.38,2.39,3.11,4.2c3.45-.64,6.9-.91,10.43-1.31,7.14-3.51,13.9-8.47,23.13-9.18,5,1.3,12.26,3.88,11.75,5.71a10.74,10.74,0,0,0-5.43,0,1.87,1.87,0,0,0-1.5,2,6.57,6.57,0,0,0,2,3.34,29.86,29.86,0,0,0,4.83,4.3c1.26,0,2.26,0,3.12,0s1.57,0,2.22,0a16.82,16.82,0,0,0,3.75-.62c-3.16-5-3.7-7.05-2.19-7.24a8.44,8.44,0,0,1,3.59.93,44.63,44.63,0,0,1,5.66,2.95c1.06.62,2.2,1.25,3.34,2L273.58,63c2.42,1.46,4.81,3.14,7.24,4.62,4.82,3,9.48,5.69,13.52,6.54A56.4,56.4,0,0,1,301,77.72c1,.59,1.9,1.16,2.76,1.73s1.61,1.19,2.33,1.77a41.53,41.53,0,0,1,3.74,3.34,28.51,28.51,0,0,1,2.52,3.21,20.18,20.18,0,0,1,1.65,3,16,16,0,0,1,.88,2.83,27.15,27.15,0,0,1,.54,5.31c.06,1.72-.05,3.55.1,5.41a23.57,23.57,0,0,0,.38,2.9c.1.5.22,1,.36,1.53s.27,1.08.44,1.64a25.72,25.72,0,0,0,1.39,3.54c.3.62.63,1.26,1,1.92s.72,1.38,1.13,2.11c.82,1.46,1.88,3,3,4.66s2.44,3.54,4,5.53c1-4,2.51-4.82,4.61-3.48a14.11,14.11,0,0,1,3.3,3.53c.59.81,1.2,1.71,1.82,2.69s1.16,2.08,1.77,3.2l1.81,3.54c.6,1.23,1.12,2.52,1.69,3.81l1.69,3.9,1.51,3.93c.5,1.29,1.05,2.54,1.51,3.77s.91,2.42,1.38,3.54.94,2.17,1.42,3.13a29.11,29.11,0,0,0,1.33,2.65,33.42,33.42,0,0,1,.38,13.55c-.41,1.84-.93,3.57-1.5,5.34l-.9,2.72L348,186.84a21.18,21.18,0,0,1,1.09,3.11l.56,2,.47,2.06c.65,2.74,1.43,5.28,2.54,6,3.71-1.61,7.37-4.62,10.87-9.05a60.68,60.68,0,0,0,4.84-7.69,79.69,79.69,0,0,0,4.16-9.76c.66-1.8,1.14-3.66,1.69-5.62s1.07-4,1.47-6.11a113.17,113.17,0,0,0,1.84-13.53l.25-3.65.1-1.86,0-1.87q0-3.77-.06-7.75a152.74,152.74,0,0,0-1.63-16.38C375.45,115.71,374.78,114.89,374.5,115.06Z"/><path class="cls-1" d="M247.56,376.3"/><path class="cls-3" d="M247.56,376.3"/><path class="cls-1" d="M179.61,372.39c24.76-3.35,49.1,10.73,74,9,14.25-1,28.26-7.18,42.37-5"/><path class="cls-1" d="M290.39,407.74c-.13-.86-.23-2-.31-3.2s-.17-2.58-.22-4a77.36,77.36,0,0,0-.47-8.08c.32-.66.67-1.33,1-2a15.28,15.28,0,0,1,1.57,5,22.64,22.64,0,0,1-.3,6.84l-.69,3.39c-.14.68-.25,1.31-.35,1.7S290.45,408,290.39,407.74Z"/><path class="cls-1" d="M294.36,385.9c-.22.09-.15-.69-.38-.58q.71-2.93,1.54-5.85Z"/><path class="cls-1" d="M288,395.07l-.87.66c-.27-.64.17-1.82.1-2.6-.41-.83-.88-1.62-1.37-2.41.94,1,1.22.2,1.45,0S287.68,391.16,288,395.07Z"/><path class="cls-1" d="M266.16,366.28c-1.73-3.26-.48-6-.56-8.65,1,.21,2.5,3.64,2.35,6.46C266.73,364.05,266.64,365.92,266.16,366.28Z"/><path class="cls-1" d="M282.35,397.76c-.28-2.92.4-3.66.93-4.27s1-1.21.56-3.91a38.78,38.78,0,0,0-1.36-6c-.33,1.09-.63,2.16-.93,3.25-1.91-.85-1.88-2.67-1.7-4.88s.52-4.83-1.21-7.21a1.46,1.46,0,0,0-.87,1.43c-.74,3.15-.08,4.5,1.11,7.22-3.3,1.45-5-14.39-7-13.9-2.38,2.55,1.32,11.69,1.37,15.26-1.91-9.48-8.5-15.64-12.23-15.57-1.37,2.34-3.43,1.33-5.33.47a5.51,5.51,0,0,0-2.74-.71c-.88.08-1.73.63-2.65,2.17-.41-.3-.85-.64-1.3-1l-1.42-1.25a15,15,0,0,0-3-2.09l.12-1.5a11.34,11.34,0,0,0-.19,1.39c-.5-3.56-1.76-2.88-2.93-2.7s-2.2-.23-1.56-5.67l-.5.89c-1.93.52.62-3.92,0-6.26-1,.54-1.61-1.51-2.29-2.59s-1.47-1.2-2.86,3.21c0-.65.27-1.08.25-1.73L232.79,353a50,50,0,0,0-1.68,7.11c-.32-.23-1.2,2.34-1.54,1.46-1.32-.3.84-4.53.78-6.5a8,8,0,0,1-5.67.69,5.93,5.93,0,0,1-2.51-1.54,10.34,10.34,0,0,1-2.1-3.17c.89-3.87.26-5.73-.83-6.61a5.73,5.73,0,0,0-3.74-.75c-1-3.82-3.66-2.29-6-.67-.58.4-1.16.81-1.7,1.14a5.44,5.44,0,0,1-1.61.7c-1,.2-1.8-.25-2.34-2,1.29-2.37,2.57-2,3.64-1.82s1.88.4,2.56-2.3l-.37-2.66c-1.6-2.05-4.43-6.33-6.41-.7.68,3.32.33,6.16.35,8.56-1.06,1.29-1.47,3.45-2.64,4.11-1.65.44-3.24-.85-2.86-4.8,1-1.32,1.87.21,2.73,0,.87-4.38-2.12-5-3-6.56.41,5.15-.69,8.66-1.29,11.77a13.06,13.06,0,0,0,.91,9.26l-2.41,1.81c-1.2,4.42.34,6.78,1.44,9.21s1.81,4.95-.38,9.73c-.62,2.66-.6,5.69-1.82,7.95.13,3.69,1.17,3.16,1.88,1.17-.11,3.6.85,3.95,1.69,4.6s1.53,1.6.74,6.39c4.13-7.12,2.82,6.52,4.91,8.78,1.34,1.34,2,.05,2.52-2.24s.91-5.53,2-8c1.08,3.34,3.9-1.05,5.6-3.09,1,.08.82,3.78-.18,5a29.18,29.18,0,0,0,13.45,13.35,29.09,29.09,0,0,0,3.41,1.48,43.44,43.44,0,0,0,7.53,2c1.88,3.37,4.09,2.93,6.4,2.95s4.36.77,7.1,6.37l-.89-1.89a2.31,2.31,0,0,1,1-2.11q-1.31-3.08-2.38-6.24a7,7,0,0,0,4.24,1.22c.62-3.87,2.52-3.88,4.48-4.07s3.87-.42,4.2-4.39a10.61,10.61,0,0,1,3.73,1.53,9.46,9.46,0,0,1,2,2,11.08,11.08,0,0,0,5.65,4c2.46-3.36,4.8-7.8,7.66-7.36,1,.11,2.45,3.44,2.6,5.14a4.27,4.27,0,0,1,3-1,15.44,15.44,0,0,0-.25-10,8.35,8.35,0,0,0-2-3A4,4,0,0,0,282.35,397.76Z"/><path class="cls-1" d="M226.39,342c1.23-4.28.16-6.32.09-8.29l-1,1.23c-2.15,1.12-3.34,6.07-2.83,8.95.63-1.81,1.42-2.56,2.14-2.72A1.56,1.56,0,0,1,226.39,342Z"/><path class="cls-1" d="M238.88,341.64l-1,4.34,1.83-1.11C240.17,342,239.4,342.06,238.88,341.64Z"/><path class="cls-1" d="M188.34,367.13c2.15.82,2.71,5.21,4.92,3.88l.18-8.1a66.75,66.75,0,0,0-3.39-6.05c-1.25-1.87-2.78-3.1-4.34-3-.93,4.23.06,5.64,1.05,7S188.83,363.32,188.34,367.13Z"/><path class="cls-1" d="M191.9,382.06c-1.81,3.73-3.31,2.51-4.86,2.11a1.91,1.91,0,0,0-2.22.45c-.65.81-1.18,2.45-1.4,5.58.62,4.72,1.1,7,1.52,7.87.21.43.41.5.61.34a3,3,0,0,0,.68-1c.93-1.84,2.27-5.44,3-2.33.57-1.08,1.06-2.09,1.61-3.07a13.16,13.16,0,0,1,2-2.89,6.89,6.89,0,0,0,.39-4.61,6.26,6.26,0,0,0-.68-1.51A10.84,10.84,0,0,0,191.9,382.06Z"/><path class="cls-1" d="M181.75,381.42c-.35-.13-.61.85-.73,1.34,0,1.59.78,3,1.16,4.2C182.45,387.09,182.85,382.92,181.75,381.42Z"/><path class="cls-4" d="M349.56,288.73"/><path class="cls-1" d="M376.62,216.47c-.1.23.2.28.37.46l-.88.68c.45.13.11-1-.92-1.1C375.53,216.88,376.18,216.45,376.62,216.47Z"/><path class="cls-1" d="M378.13,149l.28-.05.13.71C378,149.89,377.47,149.35,378.13,149Z"/><path class="cls-1" d="M380.18,149.18l-.24.25.65.41,1.27-1-.34-.25.34.25c.52-.3,0-.74.1-1.07-.91-.26-1.78.53-2.52,1.19l-.32-.15c1.25-1.07,3-1.06,5-1.21a1.35,1.35,0,0,1,.92,1.1c-1.62,1.45-3.81,1.31-5.74,1Z"/><polygon class="cls-5" points="382.3 149.75 381.99 149.59 382.59 148.96 382.3 149.75"/><path class="cls-1" d="M412.85,219.8c.59.45.3,1.81.1,2.7-.3.08-.58.92-.9,1,0-.21.09-1.75-.53-1.23a.56.56,0,0,1,0,.78,1.37,1.37,0,0,1-.69.48c.14-.18.31-.37.42-.53-.3-.73-.79-.17-1.27-.68l.45-.53c-.22-.23-.43-.48-.68-.7a6.67,6.67,0,0,0,.82-.5c.27-.19.56-.39.78-.52a2.74,2.74,0,0,1,.77-.33A1.18,1.18,0,0,1,412.85,219.8Z"/><path class="cls-1" d="M413.29,166.08c3.67-.09,7.11-.82,9.46,1.6.12.6-.55,1-1.45,1.18a21,21,0,0,1-2.84.44c-1.67-.2-3.23-.24-4.83-.32l.4-.19c-.6-.38-1.17-.72-1.75-1.07l.4-.21L411.3,167C412.66,167,414.3,166.41,413.29,166.08Z"/><path class="cls-5" d="M418.26,166.79a2.28,2.28,0,0,0-1.25-.34,8.22,8.22,0,0,1-1.24-.06,4.34,4.34,0,0,1,1.92-.39c1.68.58.29,1.49.46,2a3,3,0,0,1-1.15.14,11.56,11.56,0,0,1-1.28-.09,5,5,0,0,0-2.07,0c1.52-.14,1.7-.54,2-.88a1.1,1.1,0,0,1,.67-.41A5.45,5.45,0,0,1,418.26,166.79Z"/><path class="cls-6" d="M418.19,167.62c-.42.06-.86.12-.66.35l0,.31q-.53-.06-1-.08l0-.31.62,0-1-.79C416.8,167.27,417.49,167.44,418.19,167.62Z"/><path class="cls-1" d="M414.61,220.6c0,.2-.25.79-.38,1.18s-.23.62-.26.66-.11,0-.15,0c.15-.37.07.12.34-.68.08-.34.13-.67.19-1-.16.4-.3.68-.26.25a2.58,2.58,0,0,1,.38-.61C414.62,220.24,414.64,220.31,414.61,220.6Z"/><path class="cls-1" d="M437.13,162.62l.75,1.08c-1.09-.17-2.18-.36-3.26-.47.53.06,1.07.17.89-.13s-.43-.38-.65-.56q-1.31.11-2.58.26c-.34-.64-1.69-.76-2.41-1,.58.13,1.17.31,1.76.49l.12-.4.69.43,1.58-.58q-1.53-.49-3.07-.95c-1-.26-2-.5-3-.74,1.54.31,3.1.45,4.69.85A13.84,13.84,0,0,1,437.13,162.62Z"/><path class="cls-1" d="M378.64,289.61c.51,1.2,1-.09,1.7-1.88s1.59-4,2.32-4.74a22.7,22.7,0,0,1-1.59,3.57c-.62,1.31-1.06,2.66-.74,3.56a29.41,29.41,0,0,0,1.85-3.27,36.89,36.89,0,0,0,1.93-4.41l.36-.65c-.6,2-2.19,5.22-3,8.43s-1,5.62-.11,6.62c.23-1.41,1.38-2.77,1.47-1.2a11.53,11.53,0,0,0,.18,5.14,19.26,19.26,0,0,1,.79,3.74l.59-1.19a20.24,20.24,0,0,1,0,3.43c-.07,1.1-.18,2.23-.18,3.3,1.84-1.47,0,3.56,1.61,3.21-1.2,1.08-1.9,2.75-1.22,3.64-1.15,2.36-3.17,5.39-5.45,5.27-1.29.93-1.43-.5-3-.85l.33-.41c-.51-.17-1-1.19-1.54-.36a3.67,3.67,0,0,0-1.32-2.76,2,2,0,0,1-1.64-2.5c-.18-.43-.5-.31-.71-.32a2.28,2.28,0,0,0-.43-1.72c-.29-1.44-.42-3-.7-4.52a17.4,17.4,0,0,0-.55-2.31,19.42,19.42,0,0,0-1-2.37c.12.42.24.78.36,1.13.28-.18.57-.38.86-.57a20.12,20.12,0,0,1-1.55-3.43c.45.27.83,1.14,1.24,1.71s.83.9,1.33.37c.7-1.3.09-3,.21-5,.1.67.21,1.32.33,1.91.49-.82.46-2.1.54-3.71a14.1,14.1,0,0,1,1.16-5.46,3.81,3.81,0,0,0,.52,2.17c.24.27.54.15.86-.21a32.89,32.89,0,0,0,2.55-4.74,47.58,47.58,0,0,1,4.16-9.24,23,23,0,0,0-2.56,6.36C378.14,287.4,378.16,289.06,378.64,289.61Z"/><path class="cls-1" d="M456.77,186.33c-.55-.52-.8-.31-1-.12.08,1.22,1.29,2.44,2,3.76l1,.19c-.12-1.43-1.61-1.57-1.33-2.72.84.14,1.47,1,2,2.09s1,2.33,1.58,3.3c-.25,1-.93.61-1.66-.23a27.17,27.17,0,0,1-2.1-2.9c-1.89-1.91-1.87-3.47-3-5.17C454.69,184.82,456,185,456.77,186.33Z"/><path class="cls-1" d="M465,220.33c-.36,2.12-1.74,3.94-2.49,3.33-.6.35-1-.6-1.28-.74-.1,2-1.18,4.14-2.68,2.8a17.76,17.76,0,0,1-.6-8.42c.35-2.68.94-5.22,1.09-7.11l1,1.14c0-.65.08-1.31.09-2A15.41,15.41,0,0,1,465,220.33Z"/><path class="cls-1" d="M448.12,220.9l-.07-.72c.3,1,1.07,1.52,1.64,2.36a1.71,1.71,0,0,0,.41-1.51l-.23-.28c.45.26.19,2.5,1.37,1.69l.18-.46c-.11,3.27,2,3.79,1.73,6.74,2,2.34-.2,5.08-.17,7.43-.82-.19-1.19,1.27-1.88,1.89l-4.23-.38c-.32-1.17-1.14-1.76-2.05-2.73a7,7,0,0,1-1.36,2.24,3.39,3.39,0,0,1-1.88,1.09,2.14,2.14,0,0,1-2.3-.85c-.49-.59-.91-1.41-1.73-1.77.66-1,0-2.7-.52-4l-.42-.69c1.88,1.22,1.21-2.8,1.56-4.25l0-.93c.44.51.37,1.59,1.09,1.57l-.09-2.28a2.52,2.52,0,0,0,.58,1.31l.7-.7c-.08.54.34.66.55.93s.5-.43.7-.71l.56,1.08c.59-.84.66-1.82,1.71-1.44q.14-1.67.23-3.34l.58.94a1.83,1.83,0,0,0,.4-1.71l-.23-.26.78.64c0-.8,0-1.6,0-2.4C446.55,219.59,447.13,222.85,448.12,220.9Z"/><path class="cls-1" d="M407,225.92l.49-.45a8.78,8.78,0,0,0,.93.89,10.36,10.36,0,0,1,1.16,1.08,4.7,4.7,0,0,1,1.3,3.64,6.22,6.22,0,0,1-.38,2.66c-.28.65-.68,1.06-1,1a13.23,13.23,0,0,0-3.16-.13,3.19,3.19,0,0,1-2.54-.62,5.75,5.75,0,0,0-.28-2.9,9.29,9.29,0,0,1-.54-2.82c-.11-.11-.21-.2-.32-.29.25.21.5.47.75.71.31-1.19.62-2.24.9-3.11C405,225.86,406.16,225.63,407,225.92Z"/><polygon class="cls-5" points="442.93 226.28 443.13 226.27 443.16 227.24 442.96 227.25 442.93 226.28"/><path class="cls-1" d="M445.27,247.15c-.09-.17.18-.63.28-.85-.15.37.26.51.75.34a1.62,1.62,0,0,0,1.11-1.26,2.9,2.9,0,0,1-.86,1.39C446.08,247.22,445.45,247.46,445.27,247.15Z"/><path class="cls-1" d="M441.31,241.84l.38-.19c.12-.41,0,1.81.9,1.34.23,2-1,3-2,4s-2,1.91-1.25,4.11a10,10,0,0,0-2.35,2.79c-.7.94-1.43,1.68-2.62,1.57-1.69-.57-1.64-3-1.46-5,.2-1,.42-2,.59-3,.34.27.77-.31.81-.74l.46-1.31c1.07,1.39,1.12-1.68,2.21-2.06l-.13.4c1.57.21,1.48-2.19,2.9-2.65l.62-1C441.06,240.12,440.93,241.28,441.31,241.84Z"/><path class="cls-1" d="M413.14,268.95c.76-.55-.59,1.42.72.78-.79,1.15.38,1.64,0,2.61l.32-.1c-.91.7-.65,1.39-.55,2.19s0,1.69-1.69,2.58c.18,2.14-2.67,1.32-3.16,2.71-2.66.2-3.41-.4-4.47-2.45-.46-2,.16-1-.12-3.36l0-1.17c1.66.57-.45-2.28,1.51-1.92.48-.81.32-1.66,1.11-2.38a.73.73,0,0,0,.38.7c.78-.16,1-1,1.41-1.47l.46.61,1.25-.91c-.12.36.14.54.4.71.24-.23.49-.46.72-.7C412.84,267.55,411.21,269.75,413.14,268.95Z"/><path class="cls-5" d="M408.12,273c.37-.58.71-1.19,1.07-1.78l-.55,1.1Q408.39,272.62,408.12,273Z"/><text class="cls-7" transform="translate(49.96 191.12)"><tspan class="cls-8">Q</tspan><tspan class="cls-9" x="68.83" y="0">u</tspan><tspan class="cls-10" x="129.2" y="0">i</tspan><tspan class="cls-11" x="159.33" y="0">n</tspan><tspan x="218.7" y="0">n</tspan></text><text class="cls-12" transform="translate(213.95 244.59)">nails</text><path class="cls-2" d="M315.77,246c-.09.06-.11.11-.18.19l-.27.09c-.05.1.38-.28.43-.46C315.62,245.94,315.79,245.89,315.77,246Z"/><path class="cls-2" d="M342,225.81l0,0-.28.23C341.69,226.06,341.91,225.83,342,225.81Z"/><path class="cls-2" d="M342,226.13l-.1,0-.16.21.37-.13.1-.12-.1.12c.11,0,.29-.22.41-.31s-.19-.07-.45,0l.06-.09c.41-.16.39.06.44.28a2.17,2.17,0,0,1-.43.45c-.55.23-.49-.09-.36-.43Z"/><polygon class="cls-5" points="341.72 226.57 341.78 226.49 342.02 226.37 341.72 226.57"/><path class="cls-2" d="M315.33,252.2c0,.28-.55.71-1,1-.12-.06-.48.15-.6.09.08-.07.68-.56.38-.52a.53.53,0,0,1-.59.26l.27-.09c.23-.29,0-.21.09-.45l.27-.09.19-.34C314.72,252,315.29,251.84,315.33,252.2Z"/><path class="cls-2" d="M335.66,234.67c.24.13.78,0,.14.72a1.72,1.72,0,0,1-1,.5l-.22-.26.1,0,.31-.43.1,0,.13-.24C335.28,234.94,335.59,234.82,335.66,234.67Z"/><path class="cls-5" d="M335.72,235.06c.13-.17,0-.13,0-.2a.46.46,0,0,1,.28-.07c-.08.22-.53.49-.72.67s-.12-.23-.32-.13C335.22,235.35,335.59,234.82,335.72,235.06Z"/><path class="cls-5" d="M335.41,235.33a.29.29,0,0,0-.18.1l-.12.1,0-.05.12-.1,0,0,.23-.29Z"/><path class="cls-2" d="M315.82,253.17c0,.11-.31.28-.45.43-.42.22-.45,0-.56-.1.22-.07.06.15.42-.06l.34-.39c-.19.1-.36.13-.24,0S316,252.86,315.82,253.17Z"/><path class="cls-2" d="M339.57,233.1l-.24.28-.38.11a.3.3,0,0,0,.19-.1l.09-.13-.48.24c.18-.19,0-.14,0-.21l.06.07.16-.14-.05.1.44-.28-.22-.25C339.32,232.88,339.7,232.77,339.57,233.1Z"/><path class="cls-2" d="M326.7,263.81c.66-.51.09-.36.26-.63s-.08.38.38,0c.15-.22.24-.5,0-.42l0,0c.45-.19.34.44,1.16-.19-.05-.06.2-.39.41-.48.21.15.84-.31,1.12-.24l.12-.25c.28,0,.34.29.53.42.54-.72.33.2.87-.36-.34.48-.44.82-.12.64a6.09,6.09,0,0,1-1.5,2.19c-.39.5-.56.46-1.15,1l.08-.14c-.2.17-.46.27-.59.51a1.07,1.07,0,0,0-.73.28c-.38.35-.85.61-.82.41a1,1,0,0,0-.29.23c-.05-.05-.13-.06-.31,0a2.72,2.72,0,0,0-1.64.22l.22-.06.26-.33-.82.41c.36-.3.8-.43,1.08-.81s-.18-.12-.29-.16l.26-.1c.23-.36-.42,0-.22-.39a2,2,0,0,0,1-1.12l-.24-.27C325.82,264.31,326.22,264.21,326.7,263.81Z"/><path class="cls-2" d="M337.59,236.92c-.07,0-.18.1-.3.2-.24.28-.1.29-.12.42l.3-.21c.23-.29-.24,0,.09-.3.48-.32.16.18.24.28-.49.54-.69.39-.72.27-.26,0,.09-.37.13-.56C337.27,237,337.66,236.76,337.59,236.92Z"/><path class="cls-2" d="M337.59,239.93a2.65,2.65,0,0,1-.84,1.09,2.1,2.1,0,0,1-.51.36c0,.2-.26.72-.9,1.1-1.06.2-.25-1.15,0-1.73l.34-.16.1-.28C336.78,239.78,337.43,239.59,337.59,239.93Z"/><path class="cls-2" d="M331.18,245.43l0-.05a3,3,0,0,0,.71-.29c.09-.13.19-.26.1-.28l-.1,0c.18-.11.16.18.58-.28l0-.1c.09.34.91-.3,1,0,.89-.48.22.49.4.61a3,3,0,0,0-.55.71l-1.59,1.4a5.38,5.38,0,0,0-1,.51,4.13,4.13,0,0,1-.85,1.31c-.81.89-1.13.68-1.81,1.16.14-.32-.21-.24-.49-.17l-.2.08c.79-.52.27-.63.32-.89l-.07-.08c.2-.09.23,0,.51-.21l-.16-.19a.37.37,0,0,0,.29-.06l.22-.29c0,.08.17,0,.26-.09A.87.87,0,0,0,329,248l.27-.08a1.62,1.62,0,0,1,.57-.69l-.07-.4.26-.09c.13-.17.17-.28.08-.3l-.1,0,.32-.18-.08-.25C330.54,245.8,330.87,245.95,331.18,245.43Z"/><path class="cls-2" d="M315.78,259.24l.15-.23c.45-.11,1.55-.83,1.74-.45.2.15,0,.52-.14.94a6.73,6.73,0,0,1-2.33,1.66c.07-.31-.69-.08-.76-.31l-.15.07.34-.16.06-.72C315,259.86,315.43,259.47,315.78,259.24Z"/><rect class="cls-5" x="329.48" y="247.58" width="0.1" height="0.1" transform="translate(-81.54 278.19) rotate(-41.17)"/><path class="cls-2" d="M333.3,246.9a1,1,0,0,1-.22.14c.18-.1.47-.49.19-.34C333.4,246.63,333.57,246.66,333.3,246.9Z"/><path class="cls-2" d="M333.73,248.17l.1-.13s.31,0,.53-.34c.87-.27-.94,1.52.38.82-.41.63.08.63-.73,1.44a2.42,2.42,0,0,1-1.48.76l-.41-.07c.16-.13.19-.25.12-.25l-.1-.11c.61-.41.06-.33.36-.69l0,0c.56-.54.1-.44.51-.92l0-.19C333.35,248.29,333.51,248.31,333.73,248.17Z"/><path class="cls-2" d="M331,255.9c0-.18.23,0,.4-.33.11.12.55-.32.71-.3l.06-.09c-.1.43,1.09-.73.78.08.65-.36-.25.65,0,.59a6.33,6.33,0,0,1-1.75,1.78,10.44,10.44,0,0,1-1.05.54l-.35.16c.56-.61-.78.45-.21-.23-.12-.05-.4.1-.41-.07a1,1,0,0,0,.3-.21c.14-.23,0-.2-.05-.29l.29-.22.07-.31c.07,0,.18-.11.3-.21v-.16C330.53,256.16,330.7,256.44,331,255.9Z"/><polygon class="cls-5" points="330.83 257.04 330.59 256.92 330.76 256.96 330.83 257.04"/><path class="cls-2" d="M76.11,134.47c.05.11.16,0,.28,0l0,.51c.19-.1-.31-.37-.69-.09C75.91,134.95,76,134.6,76.11,134.47Z"/><path class="cls-2" d="M52.26,110.82l.07-.1.3.21C52.53,111.16,52.16,111.14,52.26,110.82Z"/><path class="cls-2" d="M53,110.24v.16l.36-.06.06-.73-.2,0,.2,0c.06-.27-.26-.26-.35-.4-.39.19-.38.73-.38,1.19l-.16,0c0-.75.58-1.29,1.16-2a.7.7,0,0,1,.69.09,2.69,2.69,0,0,1-1.47,2.13Z"/><polygon class="cls-5" points="53.85 109.78 53.7 109.82 53.66 109.42 53.85 109.78"/><path class="cls-2" d="M90.43,121.38c.64-.56,1.15-.12,1.36.4-.24.44-.08.94-.33,1.38-.08-.06-.69-.55-.87.17.53-.32.29.58.08,1l0-.51c-.48.05-.52.56-1,.78l0-.51-.62.26C89.52,123.35,89.55,122.3,90.43,121.38Z"/><path class="cls-2" d="M67.83,106.86c.56-1,.67-2.07,1.91-2.13.54.22.38,1.1.22,1.6l-.86,1.25,0-.16-.75.17v-.16l-.46.22C68.11,107.28,68.14,106.69,67.83,106.86Z"/><path class="cls-5" d="M68.86,105.74c-.28,0-.36.44-.51.56a1.09,1.09,0,0,1,.11-.61c.46-.3.67.31.92.4,0,.49-.69.9-.66,1.23C69.08,106.42,68.14,106.69,68.86,105.74Z"/><path class="cls-5" d="M69.2,106c0,.13-.06.27.06.27l.13.09-.18.26-.13-.09.11-.16-.48.05Z"/><path class="cls-2" d="M93.15,117.9c.23-.15.38.18.58.25.13.63-.34,1.14-.74,1.71,0-.43.4-.49.24-1l-.61,0c.06.27,0,.67-.3.71A2.06,2.06,0,0,1,93.15,117.9Z"/><path class="cls-2" d="M68,99.62h.44l-.13.83c0-.13.06-.27-.06-.27l-.23.07.1.76c-.29,0-.33.3-.49.43l.25-.36-.17-.12.19-.1-.25-.55-.86,1.25C67.16,100.89,67.3,100.06,68,99.62Z"/><path class="cls-2" d="M128.59,82.18c0-.85-.57-.21-.82-.49.14-.29.62.21.67-.38-.19-.23-.63-.41-.89-.1l-.08,0c.34-.53,1.43-.24,1.51-1.26a.41.41,0,0,1-.29-.59c.67-.11.84-1,1.5-1.15l-.31-.25a5.82,5.82,0,0,1,1.88-.17c-.46-.88,1-.1,1-.87.32.6.77.95,1.05.6a3.11,3.11,0,0,1,1.11,2.76.54.54,0,0,1-.07.69,2,2,0,0,0-.36.77l-.07-.17c-.08.25-.33.48-.19.76a.92.92,0,0,0-.66.63c-.06.5-.37,1-.58.83-.09.1-.08.25-.09.36a.32.32,0,0,0-.34.23c-.56.34-1.21.39-1.7,1.36l.18-.22-.14-.41c-.14.31-.27.58-.4.91,0-.49.34-.9.13-1.36s-.42.1-.62.17l.18-.29c-.27-.37-.53.36-.91,0a1.06,1.06,0,0,0-.55-1.42c-.28.06-.55.08-.84.16A1.06,1.06,0,0,0,128.59,82.18Z"/><path class="cls-2" d="M75.38,95.91c-.07.19.06.27.19.36.44,0,.61-.43.91-.68l-.19-.36c-.48.06-.15.59-.65.48-.29-.59.61-.89.94-1.36.82.1.23,1-.09,1.41-.23.69-.83.66-1.25,1C75.28,96.61,75,96.14,75.38,95.91Z"/><path class="cls-2" d="M83,88.52c.68-.49,1.7-.64,1.83-.21.33.08.22.49.3.64.55-.57,1.57-1,1.79-.05-.74,2.54-3.23,3.43-4.41,4.11l0-.58-.59.38A5,5,0,0,1,83,88.52Z"/><path class="cls-2" d="M89.64,93.78l-.19.25a3.54,3.54,0,0,0,.06-1.3c-.24.06-.44.07-.59.36v.16c-.09-.22.64-.87,0-1l-.2.09c1-1,.28-1.86,1.19-2.79-.16-1.43,1.55-1.74,2.07-2.47.28.31.77,0,1.17,0l1.64,1.34A3.66,3.66,0,0,0,94.86,90a3.32,3.32,0,0,1,2.3-.45c1.26.34.38,1.59.8,2.38-.63.27-.83,1-1,1.63l0,.37c-.4-1-1.23.58-1.8,1l-.26.34c0-.32.32-.68,0-.9l-.63.83a1.09,1.09,0,0,0,.16-.65l-.47,0c.19-.17.06-.34.05-.5s-.32,0-.48,0l.09-.55c-.47.11-.78.43-1.08,0l-1.06,1.08.05-.51a.79.79,0,0,0-.66.45v.16l-.1-.47-.71.8C89.85,94.72,90.58,93.46,89.64,93.78Z"/><path class="cls-2" d="M106.95,105.16l-.37.07c.13-.88-.5-2.19.49-3.31.5-.71,1.12-.85,1.93-1.27,1.27.5,1.43,1.34,1.6,2.56-.59.32-.73,1.69-1.27,2.23l0,.22-.06-.52c-.49.36-1,.75-1.5,1.13C107.67,105.84,107.15,105.58,106.95,105.16Z"/><polygon class="cls-5" points="93.19 93.61 93.11 93.54 93.37 93.2 93.45 93.26 93.19 93.61"/><path class="cls-2" d="M96,84.78c.08.07.07.23.07.31,0-.28-.68-.25-.65.2C95.42,85,95.72,84.54,96,84.78Z"/><path class="cls-2" d="M100.13,81.12l-.2,0c-.13.14.36-.73-.12-.76.64-1.77,2.78-.32,3-2.45,1.14-.07,2-1.22,3-.55.6.65.14,1.64-.35,2.39l-.84,1.09c-.09-.19-.39-.07-.49.1l-.45.41c-.18-.83-.8.41-1.35.28l.14-.13c-.63-.47-1.07.51-1.77.35l-.46.25C99.9,81.88,100.18,81.44,100.13,81.12Z"/><path class="cls-2" d="M117.19,77.25c-.41,0,.51-.45-.14-.51.54-.29.17-.78.52-1.07l-.15,0c1-.06.11-1.53,1.84-1.4.36-.94,1.33.12,1.81-.32a2,2,0,0,1,1.29,2.18c-.21,1-.26.37-.62,1.43l-.24.49c-.55-.67-.26,1.07-1,.41-.35.19-.45.61-.9.7a.4.4,0,0,0,0-.39c-.34-.13-.6.17-.85.23l-.07-.37c-.23,0-.45,0-.68.05.12-.12,0-.26,0-.4l-.42.11C117,77.91,118.12,77.4,117.19,77.25Z"/><path class="cls-5" d="M120,76.89c-.26.14-.52.3-.78.46l.43-.32Z"/><path class="cls-13" d="M244.47,213.52"/><path class="cls-2" d="M117.63,254.83c-.31-.13-.47.14-.78.28l-.78-1c-.31.41,1.4.27,1.87-.7C117.31,253.72,117.78,254.42,117.63,254.83Z"/><path class="cls-2" d="M216.88,267.45v.28h-1.09A.57.57,0,0,1,216.88,267.45Z"/><path class="cls-2" d="M216.11,269.38l-.31-.27-.78.55,1.09,1.38.46-.28-.46.28c.31.55,1.09.13,1.55.27.62-.83-.32-1.79-1.1-2.61l.31-.28c1.25,1.37.79,3,.48,5a2.41,2.41,0,0,1-1.86.7c-1.72-1.79-.95-3.86,0-5.66Z"/><polygon class="cls-5" points="214.72 271.31 215.02 271.04 215.81 271.72 214.72 271.31"/><path class="cls-2" d="M104.71,296.23c-.61,1.79-2.63,1.67-4,1-.16-1.1-1.41-1.79-1.56-2.89.31,0,2.64.13,1.86-1.38-.77,1.24-1.71-.68-1.87-1.65l.78,1c1.09-.7.31-1.66,1.08-2.62l.78,1,1.09-1.25C103.6,291.55,105.32,293.48,104.71,296.23Z"/><path class="cls-2" d="M185.25,294c.32,2.48,1.88,4.55-1.06,6.21-1.71.28-2.81-1.51-3.28-2.6v-3.31l.32.27,1.55-1.25.31.28.77-1C183.85,293.62,184.78,294.72,185.25,294Z"/><path class="cls-5" d="M184.64,297.33c.62-.41.15-1.24.31-1.65a2.17,2.17,0,0,1,.78,1.23c-.62,1.1-2.17.28-3,.42-.93-.82.15-2.48-.48-3C182.92,296.38,184.78,294.72,184.64,297.33Z"/><path class="cls-5" d="M183.39,297.34c-.15-.27-.31-.55-.62-.41h-.47v-.69h.47v.42l1.09-.7Z"/><path class="cls-2" d="M104,305.89c-.31.55-1.24.14-1.86.28-1.4-1-1.1-2.48-1.1-4,.62.82-.15,1.38,1.1,2.07l1.55-.7c-.63-.41-1.09-1.24-.47-1.66C104,303,104.89,304.51,104,305.89Z"/><path class="cls-2" d="M197.27,307.22l-1.09.56-1.09-1.66c.16.27.32.55.63.41l.46-.42-1.56-1.24c.78-.28.31-1,.46-1.38v1h.62l-.31.41,1.55.69v-3.31C197.1,303.92,198.19,305.57,197.27,307.22Z"/><path class="cls-2" d="M208.2,299.47c.46-2.45-.44-1-.59-1.92.29-.77.54,1,.87-.71-.07-.79-.48-1.6-.91-.86h-.09c.3-.68.74-.61,1.15-.75s.78-.47,1.14-2c-.2,0-.29-1.3,0-1.88.43,0,.79-.59,1.16-1.18.2-.31.37-.61.56-.86a1.82,1.82,0,0,1,.55-.52A7.47,7.47,0,0,0,212,288c.7-.48,1.18.17,1.08,0,.53-1.22.53-1.28.48-1.36a.34.34,0,0,1-.2-.3c-.08-.2,0-.5.31-1a2.81,2.81,0,0,1-.91.76,2.06,2.06,0,0,1-1,.22,1.44,1.44,0,0,1-.88-.41,2.77,2.77,0,0,1-.3-.42,1.42,1.42,0,0,1-.16-.55l-.65-.19c-.23-.08-.55-.21-.82-.32a14.19,14.19,0,0,1-1.82-.91c-.34-.2-.68-.41-1-.63l-.5-.33-.56-.41c-.77-.58-1.46-1.16-2.16-1.79s-1.46-1.4-2.1-2.05l-1-1-.91-.91c-1.15-1.12-2.11-1.82-3-1.63a2.11,2.11,0,0,1-2,.58l-.25,0c-.05-.06-.06.11-.08.2l-.05.32-.21,1.31a5.21,5.21,0,0,1-.79,2.25c.4.67.82,1.31,1.2,1.86a9.72,9.72,0,0,0,0,2.76c0,.86-.27,1.24-1.55-.55.26.67.54,1.34.84,2l.77,1.74c.25.55.52,1.1.78,1.62s.55,1.05.71,1.44c.38.84.73,1.62,1,2.31.13.35.25.67.34,1a3.21,3.21,0,0,1,.08.75c-.58.51-.48,1.83.29,3.28.22.38.35.67.55,1a6.75,6.75,0,0,0,.68.91,6.67,6.67,0,0,0,.85.8,4.27,4.27,0,0,0,.79.52c.54.79,0,1-.16,1.24l.89.66a7.46,7.46,0,0,1,.58.54,3.49,3.49,0,0,1,.78,1.21c1.58,1.58,2.78,2.43,3.5,3.27a4.1,4.1,0,0,1,1,3.12,2.91,2.91,0,0,0-.11-.68c.17-.38.35-.77.5-1.15-.08.9-.1,1.79-.19,2.68.12-.69.21-1.35.3-2a8.72,8.72,0,0,1,.43-2c.33-.88.14.18.11.34l.15-.77c.22-1.21-.17.91-.16-.33a10.72,10.72,0,0,0,.32-4.5l-.75-.06C207.43,302.36,207.91,301.32,208.2,299.47Z"/><path class="cls-2" d="M179.55,337.9c.41-1.17,0-1.36-.44-1.56a7.06,7.06,0,0,0-2.14,2.37,30.44,30.44,0,0,1-2.08,3c.09.53.18,1.07.25,1.61,2-1.11,1.42-3.39,3.21-3.77.28,1.31-.67,2.86-1.92,4.39s-2.92,3-4.09,4.29c-1.6.16-1.3-1-.45-2.53s2.28-3.51,3.15-4.83a16.56,16.56,0,0,1,2.74-4.36,22,22,0,0,0,2.69-3.42C180.31,333.89,181.09,335.87,179.55,337.9Z"/><path class="cls-2" d="M119.27,309.31c1.28-1.83,3.87-3,4.74-2.09,1-.07,1.17,1,1.58,1.3.83-1.85,3.14-3.53,4.8-1.5a11.22,11.22,0,0,1-2.15,8.16c-1.51,2.23-3.46,4.07-4.56,5.48l-.88-1.34-1,1.52C119,317.48,117.87,313.62,119.27,309.31Z"/><path class="cls-2" d="M143.65,316.25l-.16.68c-.09-1-1-1.84-1.51-2.88-.56.3-1.09.47-1.12,1.2l.23.36c-.53-.43.63-2.38-1.36-2.15l-.41.35a4.63,4.63,0,0,0-.12-3.67,4,4,0,0,1-.07-3.49,3,3,0,0,1,.4-3.94c.88-1.09,2.08-2,2.4-3,1.11.59,2-.47,3.11-.66l5.9,2.4c.18,1.26,1.13,2.23,2.09,3.6a8,8,0,0,1,5.61-1.87c3.73.34,2.79,3.38,4.87,5-1.33.79-.94,2.51-.58,3.78l.39.77c-2.29-1.94-2.55,1.69-3.5,2.79l-.24.82c-.46-.64,0-1.54-1.07-1.86l-.6,2a1.87,1.87,0,0,0-.4-1.41l-1.22.29c.29-.44-.27-.73-.5-1.07-.41-.26-.86.14-1.23.3l-.46-1.21c-1.11.47-1.52,1.31-2.9.5-.51,1-1,1.94-1.44,2.91l-.51-1.1a1.47,1.47,0,0,0-1.17,1.37l.23.34-.88-.92c-.31.72-.57,1.45-.85,2.18-.58-.27-.8-1.21-1.13-1.91S144.71,315.57,143.65,316.25Z"/><path class="cls-2" d="M204.17,330l-.83.1c-.5-.59-1.61-1.34-2.49-2.18s-1.53-1.77-1.08-2.65c.24-1.15,1.62-1.36,3.06-2,3.83.9,5.39,2.41,7.54,4.22-1,.44.65,2.36.14,3l.4.29-.94-.69c-.66.45-1.36.91-2,1.38C207,330.94,205.31,330.6,204.17,330Z"/><polygon class="cls-5" points="152.89 313.7 152.59 313.61 152.85 312.73 153.15 312.82 152.89 313.7"/><path class="cls-2" d="M150.3,292.58a1.38,1.38,0,0,1,.51.72c-.37-.65-2.08-.35-1.53.7C149,293.41,149.31,292.1,150.3,292.58Z"/><path class="cls-2" d="M157.46,282.61h-.55c-.22.36.21-1.86-1.09-1.82-.09-2.24,1.69-2.62,3.22-3.08s2.88-1,2.16-3.71c2.93-.37,4.09-3.51,7.16-1.78a4.16,4.16,0,0,1,1.6,2.91,8.76,8.76,0,0,1-.27,3.1c-.36.91-.7,1.81-1,2.73a.68.68,0,0,0-1.15.3l-.72,1.08c-1.32-2-1.66,1.13-3.19,1l.22-.34c-2.13-1-2.23,1.49-4.24,1.25l-1,.71C157.61,284.49,157.91,283.37,157.46,282.61Z"/><path class="cls-2" d="M193.51,276.31c-.75-.19.79-.85-.44-1.51.94-.36.1-2,.72-2.6l-.29-.22c1,.2,1-.79,1.16-1.71s.69-1.8,2.15-1c.31-1.18.93-.85,1.55-.31s1.23,1.26,1.7.79c1.87,2.58,2,4,1.8,7.3a5.23,5.23,0,0,1-.48,1.73,4.71,4.71,0,0,0-.55,1.88l-.28,1.16c-.4-1.19-.44-.49-.48.17s0,1.32-.55.08a1.55,1.55,0,0,0-.26.32l-.25.43c-.17.28-.35.5-.7.44a2,2,0,0,0-.14-1.09c-.62-.65-.9,0-1.29,0l-.25-1.07c-.36-.14-.75-.29-1.12-.41.14-.24,0-.66-.2-1.09-.24,0-.45,0-.68,0a2,2,0,0,1-.34-1.79C194.37,277.3,194.39,276.86,193.51,276.31Z"/><path class="cls-5" d="M198.35,277.43l-1.18.69.71-.55A4.65,4.65,0,0,1,198.35,277.43Z"/></g></g></svg>